%TF.GenerationSoftware,KiCad,Pcbnew,7.0.11*%
%TF.CreationDate,2025-03-21T17:42:29+01:00*%
%TF.ProjectId,Horno,486f726e-6f2e-46b6-9963-61645f706362,rev?*%
%TF.SameCoordinates,Original*%
%TF.FileFunction,Legend,Bot*%
%TF.FilePolarity,Positive*%
%FSLAX46Y46*%
G04 Gerber Fmt 4.6, Leading zero omitted, Abs format (unit mm)*
G04 Created by KiCad (PCBNEW 7.0.11) date 2025-03-21 17:42:29*
%MOMM*%
%LPD*%
G01*
G04 APERTURE LIST*
%ADD10C,0.150000*%
%ADD11C,0.120000*%
G04 APERTURE END LIST*
D10*
X105494819Y-82278095D02*
X106304342Y-82278095D01*
X106304342Y-82278095D02*
X106399580Y-82325714D01*
X106399580Y-82325714D02*
X106447200Y-82373333D01*
X106447200Y-82373333D02*
X106494819Y-82468571D01*
X106494819Y-82468571D02*
X106494819Y-82659047D01*
X106494819Y-82659047D02*
X106447200Y-82754285D01*
X106447200Y-82754285D02*
X106399580Y-82801904D01*
X106399580Y-82801904D02*
X106304342Y-82849523D01*
X106304342Y-82849523D02*
X105494819Y-82849523D01*
X105590057Y-83278095D02*
X105542438Y-83325714D01*
X105542438Y-83325714D02*
X105494819Y-83420952D01*
X105494819Y-83420952D02*
X105494819Y-83659047D01*
X105494819Y-83659047D02*
X105542438Y-83754285D01*
X105542438Y-83754285D02*
X105590057Y-83801904D01*
X105590057Y-83801904D02*
X105685295Y-83849523D01*
X105685295Y-83849523D02*
X105780533Y-83849523D01*
X105780533Y-83849523D02*
X105923390Y-83801904D01*
X105923390Y-83801904D02*
X106494819Y-83230476D01*
X106494819Y-83230476D02*
X106494819Y-83849523D01*
D11*
%TO.C,U2*%
X157960000Y-76580000D02*
X157960000Y-89500000D01*
X107040000Y-76580000D02*
X157960000Y-76580000D01*
X107040000Y-82040000D02*
X107040000Y-76580000D01*
X157960000Y-89500000D02*
X107040000Y-89500000D01*
X107040000Y-89500000D02*
X107040000Y-84040000D01*
X107040000Y-84040000D02*
G75*
G03*
X107040000Y-82040000I0J1000000D01*
G01*
%TD*%
M02*
