M48
; DRILL file {KiCad 7.0.11} date Fri Mar 21 17:42:25 2025
; FORMAT={-:-/ absolute / inch / decimal}
; #@! TF.CreationDate,2025-03-21T17:42:25+01:00
; #@! TF.GenerationSoftware,Kicad,Pcbnew,7.0.11
; #@! TF.FileFunction,Plated,1,2,PTH
FMAT,2
INCH
; #@! TA.AperFunction,Plated,PTH,ViaDrill
T1C0.0157
; #@! TA.AperFunction,Plated,PTH,ViaDrill
T2C0.0236
; #@! TA.AperFunction,Plated,PTH,ComponentDrill
T3C0.0295
; #@! TA.AperFunction,Plated,PTH,ComponentDrill
T4C0.0315
; #@! TA.AperFunction,Plated,PTH,ComponentDrill
T5C0.0354
; #@! TA.AperFunction,Plated,PTH,ComponentDrill
T6C0.0394
; #@! TA.AperFunction,Plated,PTH,ComponentDrill
T7C0.0512
%
G90
G05
T1
X3.5629Y-3.3685
X3.9516Y-4.3158
X4.5234Y-3.9639
X4.6632Y-3.4969
X4.7346Y-2.5579
X4.8397Y-3.6277
X4.8621Y-3.6999
X5.0009Y-3.6359
X5.0271Y-3.7277
X5.0441Y-3.1114
X5.232Y-3.9612
X5.266Y-4.1376
X5.3968Y-4.308
X5.4566Y-4.1379
X5.5188Y-4.2
X5.5289Y-4.0202
X5.5665Y-3.6946
X5.5697Y-4.0122
X5.6624Y-3.8378
X5.8665Y-3.1017
T2
X4.0498Y-3.086
X4.1516Y-3.452
X4.1957Y-3.1475
X4.2811Y-4.2063
X6.2492Y-3.9857
T3
X2.6512Y-3.2421
X2.6512Y-3.2921
X2.6512Y-3.3421
T4
X2.8555Y-3.0965
X2.8555Y-3.4965
X3.011Y-3.0965
X3.011Y-3.4965
X3.1705Y-3.0965
X3.1705Y-3.4965
X3.585Y-3.7772
X3.6693Y-3.1685
X3.6693Y-3.2685
X3.6693Y-3.3685
X3.6693Y-3.4685
X3.685Y-3.7772
X3.785Y-3.7772
X3.8894Y-3.7831
X3.9516Y-4.0949
X3.9693Y-3.1685
X3.9693Y-3.2685
X3.9693Y-3.3685
X3.9693Y-3.4685
X3.9894Y-3.7831
X4.0516Y-4.0949
X4.0894Y-3.7831
X4.1516Y-4.0949
X4.2665Y-2.9693
X4.2665Y-3.5693
X4.3665Y-2.9693
X4.3665Y-3.5693
X4.4665Y-2.9693
X4.4665Y-3.5693
X4.5665Y-2.9693
X4.5665Y-3.5693
X4.6665Y-2.9693
X4.6665Y-3.5693
X4.7665Y-2.9693
X4.7665Y-3.5693
X4.8665Y-2.9693
X4.8665Y-3.5693
X4.9665Y-2.9693
X4.9665Y-3.5693
X5.0665Y-2.9693
X5.0665Y-3.5693
X5.1061Y-2.2878
X5.1061Y-2.5878
X5.1433Y-3.9272
X5.1665Y-2.9693
X5.1665Y-3.5693
X5.2061Y-2.2878
X5.2061Y-2.5878
X5.2665Y-2.9693
X5.2665Y-3.5693
X5.3061Y-2.2878
X5.3061Y-2.5878
X5.3402Y-3.9272
X5.3665Y-2.9693
X5.3665Y-3.5693
X5.4061Y-2.2878
X5.4061Y-2.5878
X5.4665Y-2.9693
X5.4665Y-3.5693
X5.5061Y-2.2878
X5.5061Y-2.5878
X5.5665Y-2.9693
X5.5665Y-3.5693
X5.6061Y-2.2878
X5.6061Y-2.5878
X5.6665Y-2.9693
X5.6665Y-3.5693
X5.7061Y-2.2878
X5.7061Y-2.5878
X5.7665Y-2.9693
X5.7665Y-3.5693
X5.8665Y-2.9693
X5.8665Y-3.5693
X5.9665Y-2.9693
X5.9665Y-3.5693
X6.0665Y-2.9693
X6.0665Y-3.5693
X6.1665Y-2.9693
X6.1665Y-3.5693
T5
X3.6933Y-4.0965
X3.7933Y-4.0965
X3.8327Y-2.9988
X3.9327Y-2.9988
X4.5941Y-4.1248
X4.7858Y-4.1268
X4.9827Y-4.1272
X5.1657Y-4.126
X5.8752Y-2.5843
X6.0783Y-2.5886
T6
X4.2701Y-2.7756
X4.2701Y-3.7756
X4.3701Y-2.7756
X4.3701Y-3.7756
X4.4701Y-2.7756
X4.4701Y-3.7756
X4.5701Y-2.7756
X4.5701Y-3.7756
X4.6701Y-2.7756
X4.6701Y-3.7756
X4.7697Y-4.4299
X4.7697Y-4.5299
X4.7701Y-2.7756
X4.7701Y-3.7756
X4.8697Y-4.4299
X4.8697Y-4.5299
X4.8701Y-2.7756
X4.8701Y-3.7756
X4.9697Y-4.4299
X4.9697Y-4.5299
X4.9701Y-2.7756
X4.9701Y-3.7756
X5.0697Y-4.4299
X5.0697Y-4.5299
X5.0701Y-2.7756
X5.0701Y-3.7756
X5.1697Y-4.4299
X5.1697Y-4.5299
X5.1701Y-2.7756
X5.1701Y-3.7756
X5.2697Y-4.4299
X5.2697Y-4.5299
X5.2701Y-2.7756
X5.2701Y-3.7756
X5.3697Y-4.4299
X5.3697Y-4.5299
X5.3701Y-2.7756
X5.3701Y-3.7756
X5.4697Y-4.4299
X5.4697Y-4.5299
X5.4701Y-2.7756
X5.4701Y-3.7756
X5.5697Y-4.4299
X5.5697Y-4.5299
X5.5701Y-2.7756
X5.5701Y-3.7756
X5.6697Y-4.4299
X5.6697Y-4.5299
X5.6701Y-2.7756
X5.6701Y-3.7756
X5.7701Y-2.7756
X5.7701Y-3.7756
X5.8701Y-2.7756
X5.8701Y-3.7756
X5.9701Y-2.7756
X5.9701Y-3.7756
X6.0701Y-2.7756
X6.0701Y-3.7756
X6.1701Y-2.7756
X6.1701Y-3.7756
T7
X2.9874Y-4.4758
X3.1874Y-4.4758
X3.3874Y-4.4758
X3.5874Y-4.4758
X3.7874Y-4.4758
X3.9874Y-4.4758
X4.0087Y-2.2815
X4.1874Y-4.4758
X4.2087Y-2.2815
X4.3874Y-4.4758
X4.4697Y-2.2823
X4.6697Y-2.2823
M30
