%TF.GenerationSoftware,KiCad,Pcbnew,7.0.11*%
%TF.CreationDate,2025-03-21T17:42:29+01:00*%
%TF.ProjectId,Horno,486f726e-6f2e-46b6-9963-61645f706362,rev?*%
%TF.SameCoordinates,Original*%
%TF.FileFunction,Legend,Top*%
%TF.FilePolarity,Positive*%
%FSLAX46Y46*%
G04 Gerber Fmt 4.6, Leading zero omitted, Abs format (unit mm)*
G04 Created by KiCad (PCBNEW 7.0.11) date 2025-03-21 17:42:29*
%MOMM*%
%LPD*%
G01*
G04 APERTURE LIST*
%ADD10C,0.150000*%
%ADD11C,0.120000*%
G04 APERTURE END LIST*
D10*
X66416779Y-58139819D02*
X66416779Y-58949342D01*
X66416779Y-58949342D02*
X66464398Y-59044580D01*
X66464398Y-59044580D02*
X66512017Y-59092200D01*
X66512017Y-59092200D02*
X66607255Y-59139819D01*
X66607255Y-59139819D02*
X66797731Y-59139819D01*
X66797731Y-59139819D02*
X66892969Y-59092200D01*
X66892969Y-59092200D02*
X66940588Y-59044580D01*
X66940588Y-59044580D02*
X66988207Y-58949342D01*
X66988207Y-58949342D02*
X66988207Y-58139819D01*
X67464398Y-59139819D02*
X67464398Y-58139819D01*
X67464398Y-58139819D02*
X67845350Y-58139819D01*
X67845350Y-58139819D02*
X67940588Y-58187438D01*
X67940588Y-58187438D02*
X67988207Y-58235057D01*
X67988207Y-58235057D02*
X68035826Y-58330295D01*
X68035826Y-58330295D02*
X68035826Y-58473152D01*
X68035826Y-58473152D02*
X67988207Y-58568390D01*
X67988207Y-58568390D02*
X67940588Y-58616009D01*
X67940588Y-58616009D02*
X67845350Y-58663628D01*
X67845350Y-58663628D02*
X67464398Y-58663628D01*
X68464398Y-59139819D02*
X68464398Y-58139819D01*
X68464398Y-58139819D02*
X68797731Y-58854104D01*
X68797731Y-58854104D02*
X69131064Y-58139819D01*
X69131064Y-58139819D02*
X69131064Y-59139819D01*
X69607255Y-58758866D02*
X70369160Y-58758866D01*
X70845350Y-58616009D02*
X71178683Y-58616009D01*
X71321540Y-59139819D02*
X70845350Y-59139819D01*
X70845350Y-59139819D02*
X70845350Y-58139819D01*
X70845350Y-58139819D02*
X71321540Y-58139819D01*
X72083445Y-58616009D02*
X71750112Y-58616009D01*
X71750112Y-59139819D02*
X71750112Y-58139819D01*
X71750112Y-58139819D02*
X72226302Y-58139819D01*
X72607255Y-59139819D02*
X72607255Y-58139819D01*
X73083445Y-58616009D02*
X73416778Y-58616009D01*
X73559635Y-59139819D02*
X73083445Y-59139819D01*
X73083445Y-59139819D02*
X73083445Y-58139819D01*
X73083445Y-58139819D02*
X73559635Y-58139819D01*
X74321540Y-58616009D02*
X73988207Y-58616009D01*
X73988207Y-59139819D02*
X73988207Y-58139819D01*
X73988207Y-58139819D02*
X74464397Y-58139819D01*
X74797731Y-58854104D02*
X75273921Y-58854104D01*
X74702493Y-59139819D02*
X75035826Y-58139819D01*
X75035826Y-58139819D02*
X75369159Y-59139819D01*
X75702493Y-58758866D02*
X76464398Y-58758866D01*
X76797731Y-58139819D02*
X77369159Y-58139819D01*
X77083445Y-59139819D02*
X77083445Y-58139819D01*
X77702493Y-59139819D02*
X77702493Y-58139819D01*
X77702493Y-58139819D02*
X78083445Y-58139819D01*
X78083445Y-58139819D02*
X78178683Y-58187438D01*
X78178683Y-58187438D02*
X78226302Y-58235057D01*
X78226302Y-58235057D02*
X78273921Y-58330295D01*
X78273921Y-58330295D02*
X78273921Y-58473152D01*
X78273921Y-58473152D02*
X78226302Y-58568390D01*
X78226302Y-58568390D02*
X78178683Y-58616009D01*
X78178683Y-58616009D02*
X78083445Y-58663628D01*
X78083445Y-58663628D02*
X77702493Y-58663628D01*
X78654874Y-59092200D02*
X78797731Y-59139819D01*
X78797731Y-59139819D02*
X79035826Y-59139819D01*
X79035826Y-59139819D02*
X79131064Y-59092200D01*
X79131064Y-59092200D02*
X79178683Y-59044580D01*
X79178683Y-59044580D02*
X79226302Y-58949342D01*
X79226302Y-58949342D02*
X79226302Y-58854104D01*
X79226302Y-58854104D02*
X79178683Y-58758866D01*
X79178683Y-58758866D02*
X79131064Y-58711247D01*
X79131064Y-58711247D02*
X79035826Y-58663628D01*
X79035826Y-58663628D02*
X78845350Y-58616009D01*
X78845350Y-58616009D02*
X78750112Y-58568390D01*
X78750112Y-58568390D02*
X78702493Y-58520771D01*
X78702493Y-58520771D02*
X78654874Y-58425533D01*
X78654874Y-58425533D02*
X78654874Y-58330295D01*
X78654874Y-58330295D02*
X78702493Y-58235057D01*
X78702493Y-58235057D02*
X78750112Y-58187438D01*
X78750112Y-58187438D02*
X78845350Y-58139819D01*
X78845350Y-58139819D02*
X79083445Y-58139819D01*
X79083445Y-58139819D02*
X79226302Y-58187438D01*
X79654874Y-58616009D02*
X79988207Y-58616009D01*
X80131064Y-59139819D02*
X79654874Y-59139819D01*
X79654874Y-59139819D02*
X79654874Y-58139819D01*
X79654874Y-58139819D02*
X80131064Y-58139819D01*
X80321541Y-59235057D02*
X81083445Y-59235057D01*
X81892969Y-59044580D02*
X81845350Y-59092200D01*
X81845350Y-59092200D02*
X81702493Y-59139819D01*
X81702493Y-59139819D02*
X81607255Y-59139819D01*
X81607255Y-59139819D02*
X81464398Y-59092200D01*
X81464398Y-59092200D02*
X81369160Y-58996961D01*
X81369160Y-58996961D02*
X81321541Y-58901723D01*
X81321541Y-58901723D02*
X81273922Y-58711247D01*
X81273922Y-58711247D02*
X81273922Y-58568390D01*
X81273922Y-58568390D02*
X81321541Y-58377914D01*
X81321541Y-58377914D02*
X81369160Y-58282676D01*
X81369160Y-58282676D02*
X81464398Y-58187438D01*
X81464398Y-58187438D02*
X81607255Y-58139819D01*
X81607255Y-58139819D02*
X81702493Y-58139819D01*
X81702493Y-58139819D02*
X81845350Y-58187438D01*
X81845350Y-58187438D02*
X81892969Y-58235057D01*
X82750112Y-58473152D02*
X82750112Y-59139819D01*
X82321541Y-58473152D02*
X82321541Y-58996961D01*
X82321541Y-58996961D02*
X82369160Y-59092200D01*
X82369160Y-59092200D02*
X82464398Y-59139819D01*
X82464398Y-59139819D02*
X82607255Y-59139819D01*
X82607255Y-59139819D02*
X82702493Y-59092200D01*
X82702493Y-59092200D02*
X82750112Y-59044580D01*
X83226303Y-59139819D02*
X83226303Y-58473152D01*
X83226303Y-58663628D02*
X83273922Y-58568390D01*
X83273922Y-58568390D02*
X83321541Y-58520771D01*
X83321541Y-58520771D02*
X83416779Y-58473152D01*
X83416779Y-58473152D02*
X83512017Y-58473152D01*
X83797732Y-59092200D02*
X83892970Y-59139819D01*
X83892970Y-59139819D02*
X84083446Y-59139819D01*
X84083446Y-59139819D02*
X84178684Y-59092200D01*
X84178684Y-59092200D02*
X84226303Y-58996961D01*
X84226303Y-58996961D02*
X84226303Y-58949342D01*
X84226303Y-58949342D02*
X84178684Y-58854104D01*
X84178684Y-58854104D02*
X84083446Y-58806485D01*
X84083446Y-58806485D02*
X83940589Y-58806485D01*
X83940589Y-58806485D02*
X83845351Y-58758866D01*
X83845351Y-58758866D02*
X83797732Y-58663628D01*
X83797732Y-58663628D02*
X83797732Y-58616009D01*
X83797732Y-58616009D02*
X83845351Y-58520771D01*
X83845351Y-58520771D02*
X83940589Y-58473152D01*
X83940589Y-58473152D02*
X84083446Y-58473152D01*
X84083446Y-58473152D02*
X84178684Y-58520771D01*
X84797732Y-59139819D02*
X84702494Y-59092200D01*
X84702494Y-59092200D02*
X84654875Y-59044580D01*
X84654875Y-59044580D02*
X84607256Y-58949342D01*
X84607256Y-58949342D02*
X84607256Y-58663628D01*
X84607256Y-58663628D02*
X84654875Y-58568390D01*
X84654875Y-58568390D02*
X84702494Y-58520771D01*
X84702494Y-58520771D02*
X84797732Y-58473152D01*
X84797732Y-58473152D02*
X84940589Y-58473152D01*
X84940589Y-58473152D02*
X85035827Y-58520771D01*
X85035827Y-58520771D02*
X85083446Y-58568390D01*
X85083446Y-58568390D02*
X85131065Y-58663628D01*
X85131065Y-58663628D02*
X85131065Y-58949342D01*
X85131065Y-58949342D02*
X85083446Y-59044580D01*
X85083446Y-59044580D02*
X85035827Y-59092200D01*
X85035827Y-59092200D02*
X84940589Y-59139819D01*
X84940589Y-59139819D02*
X84797732Y-59139819D01*
X86273923Y-58235057D02*
X86321542Y-58187438D01*
X86321542Y-58187438D02*
X86416780Y-58139819D01*
X86416780Y-58139819D02*
X86654875Y-58139819D01*
X86654875Y-58139819D02*
X86750113Y-58187438D01*
X86750113Y-58187438D02*
X86797732Y-58235057D01*
X86797732Y-58235057D02*
X86845351Y-58330295D01*
X86845351Y-58330295D02*
X86845351Y-58425533D01*
X86845351Y-58425533D02*
X86797732Y-58568390D01*
X86797732Y-58568390D02*
X86226304Y-59139819D01*
X86226304Y-59139819D02*
X86845351Y-59139819D01*
X87702494Y-58473152D02*
X87702494Y-59139819D01*
X87464399Y-58092200D02*
X87226304Y-58806485D01*
X87226304Y-58806485D02*
X87845351Y-58806485D01*
X88940589Y-58092200D02*
X88083447Y-59377914D01*
X89226304Y-58235057D02*
X89273923Y-58187438D01*
X89273923Y-58187438D02*
X89369161Y-58139819D01*
X89369161Y-58139819D02*
X89607256Y-58139819D01*
X89607256Y-58139819D02*
X89702494Y-58187438D01*
X89702494Y-58187438D02*
X89750113Y-58235057D01*
X89750113Y-58235057D02*
X89797732Y-58330295D01*
X89797732Y-58330295D02*
X89797732Y-58425533D01*
X89797732Y-58425533D02*
X89750113Y-58568390D01*
X89750113Y-58568390D02*
X89178685Y-59139819D01*
X89178685Y-59139819D02*
X89797732Y-59139819D01*
X90702494Y-58139819D02*
X90226304Y-58139819D01*
X90226304Y-58139819D02*
X90178685Y-58616009D01*
X90178685Y-58616009D02*
X90226304Y-58568390D01*
X90226304Y-58568390D02*
X90321542Y-58520771D01*
X90321542Y-58520771D02*
X90559637Y-58520771D01*
X90559637Y-58520771D02*
X90654875Y-58568390D01*
X90654875Y-58568390D02*
X90702494Y-58616009D01*
X90702494Y-58616009D02*
X90750113Y-58711247D01*
X90750113Y-58711247D02*
X90750113Y-58949342D01*
X90750113Y-58949342D02*
X90702494Y-59044580D01*
X90702494Y-59044580D02*
X90654875Y-59092200D01*
X90654875Y-59092200D02*
X90559637Y-59139819D01*
X90559637Y-59139819D02*
X90321542Y-59139819D01*
X90321542Y-59139819D02*
X90226304Y-59092200D01*
X90226304Y-59092200D02*
X90178685Y-59044580D01*
X91226304Y-59092200D02*
X91226304Y-59139819D01*
X91226304Y-59139819D02*
X91178685Y-59235057D01*
X91178685Y-59235057D02*
X91131066Y-59282676D01*
X92321542Y-58139819D02*
X92988208Y-59139819D01*
X92988208Y-58139819D02*
X92321542Y-59139819D01*
X93559637Y-58139819D02*
X93654875Y-58139819D01*
X93654875Y-58139819D02*
X93750113Y-58187438D01*
X93750113Y-58187438D02*
X93797732Y-58235057D01*
X93797732Y-58235057D02*
X93845351Y-58330295D01*
X93845351Y-58330295D02*
X93892970Y-58520771D01*
X93892970Y-58520771D02*
X93892970Y-58758866D01*
X93892970Y-58758866D02*
X93845351Y-58949342D01*
X93845351Y-58949342D02*
X93797732Y-59044580D01*
X93797732Y-59044580D02*
X93750113Y-59092200D01*
X93750113Y-59092200D02*
X93654875Y-59139819D01*
X93654875Y-59139819D02*
X93559637Y-59139819D01*
X93559637Y-59139819D02*
X93464399Y-59092200D01*
X93464399Y-59092200D02*
X93416780Y-59044580D01*
X93416780Y-59044580D02*
X93369161Y-58949342D01*
X93369161Y-58949342D02*
X93321542Y-58758866D01*
X93321542Y-58758866D02*
X93321542Y-58520771D01*
X93321542Y-58520771D02*
X93369161Y-58330295D01*
X93369161Y-58330295D02*
X93416780Y-58235057D01*
X93416780Y-58235057D02*
X93464399Y-58187438D01*
X93464399Y-58187438D02*
X93559637Y-58139819D01*
X94226304Y-58139819D02*
X94845351Y-58139819D01*
X94845351Y-58139819D02*
X94512018Y-58520771D01*
X94512018Y-58520771D02*
X94654875Y-58520771D01*
X94654875Y-58520771D02*
X94750113Y-58568390D01*
X94750113Y-58568390D02*
X94797732Y-58616009D01*
X94797732Y-58616009D02*
X94845351Y-58711247D01*
X94845351Y-58711247D02*
X94845351Y-58949342D01*
X94845351Y-58949342D02*
X94797732Y-59044580D01*
X94797732Y-59044580D02*
X94750113Y-59092200D01*
X94750113Y-59092200D02*
X94654875Y-59139819D01*
X94654875Y-59139819D02*
X94369161Y-59139819D01*
X94369161Y-59139819D02*
X94273923Y-59092200D01*
X94273923Y-59092200D02*
X94226304Y-59044580D01*
X95178685Y-58139819D02*
X95845351Y-59139819D01*
X95845351Y-58139819D02*
X95178685Y-59139819D01*
X96416780Y-58139819D02*
X96512018Y-58139819D01*
X96512018Y-58139819D02*
X96607256Y-58187438D01*
X96607256Y-58187438D02*
X96654875Y-58235057D01*
X96654875Y-58235057D02*
X96702494Y-58330295D01*
X96702494Y-58330295D02*
X96750113Y-58520771D01*
X96750113Y-58520771D02*
X96750113Y-58758866D01*
X96750113Y-58758866D02*
X96702494Y-58949342D01*
X96702494Y-58949342D02*
X96654875Y-59044580D01*
X96654875Y-59044580D02*
X96607256Y-59092200D01*
X96607256Y-59092200D02*
X96512018Y-59139819D01*
X96512018Y-59139819D02*
X96416780Y-59139819D01*
X96416780Y-59139819D02*
X96321542Y-59092200D01*
X96321542Y-59092200D02*
X96273923Y-59044580D01*
X96273923Y-59044580D02*
X96226304Y-58949342D01*
X96226304Y-58949342D02*
X96178685Y-58758866D01*
X96178685Y-58758866D02*
X96178685Y-58520771D01*
X96178685Y-58520771D02*
X96226304Y-58330295D01*
X96226304Y-58330295D02*
X96273923Y-58235057D01*
X96273923Y-58235057D02*
X96321542Y-58187438D01*
X96321542Y-58187438D02*
X96416780Y-58139819D01*
X97607256Y-58473152D02*
X97607256Y-59139819D01*
X97369161Y-58092200D02*
X97131066Y-58806485D01*
X97131066Y-58806485D02*
X97750113Y-58806485D01*
X66546779Y-56799819D02*
X66546779Y-55799819D01*
X66546779Y-55799819D02*
X66784874Y-55799819D01*
X66784874Y-55799819D02*
X66927731Y-55847438D01*
X66927731Y-55847438D02*
X67022969Y-55942676D01*
X67022969Y-55942676D02*
X67070588Y-56037914D01*
X67070588Y-56037914D02*
X67118207Y-56228390D01*
X67118207Y-56228390D02*
X67118207Y-56371247D01*
X67118207Y-56371247D02*
X67070588Y-56561723D01*
X67070588Y-56561723D02*
X67022969Y-56656961D01*
X67022969Y-56656961D02*
X66927731Y-56752200D01*
X66927731Y-56752200D02*
X66784874Y-56799819D01*
X66784874Y-56799819D02*
X66546779Y-56799819D01*
X67975350Y-56799819D02*
X67975350Y-56276009D01*
X67975350Y-56276009D02*
X67927731Y-56180771D01*
X67927731Y-56180771D02*
X67832493Y-56133152D01*
X67832493Y-56133152D02*
X67642017Y-56133152D01*
X67642017Y-56133152D02*
X67546779Y-56180771D01*
X67975350Y-56752200D02*
X67880112Y-56799819D01*
X67880112Y-56799819D02*
X67642017Y-56799819D01*
X67642017Y-56799819D02*
X67546779Y-56752200D01*
X67546779Y-56752200D02*
X67499160Y-56656961D01*
X67499160Y-56656961D02*
X67499160Y-56561723D01*
X67499160Y-56561723D02*
X67546779Y-56466485D01*
X67546779Y-56466485D02*
X67642017Y-56418866D01*
X67642017Y-56418866D02*
X67880112Y-56418866D01*
X67880112Y-56418866D02*
X67975350Y-56371247D01*
X68356303Y-56133152D02*
X68594398Y-56799819D01*
X68594398Y-56799819D02*
X68832493Y-56133152D01*
X69213446Y-56799819D02*
X69213446Y-56133152D01*
X69213446Y-55799819D02*
X69165827Y-55847438D01*
X69165827Y-55847438D02*
X69213446Y-55895057D01*
X69213446Y-55895057D02*
X69261065Y-55847438D01*
X69261065Y-55847438D02*
X69213446Y-55799819D01*
X69213446Y-55799819D02*
X69213446Y-55895057D01*
X70118207Y-56799819D02*
X70118207Y-55799819D01*
X70118207Y-56752200D02*
X70022969Y-56799819D01*
X70022969Y-56799819D02*
X69832493Y-56799819D01*
X69832493Y-56799819D02*
X69737255Y-56752200D01*
X69737255Y-56752200D02*
X69689636Y-56704580D01*
X69689636Y-56704580D02*
X69642017Y-56609342D01*
X69642017Y-56609342D02*
X69642017Y-56323628D01*
X69642017Y-56323628D02*
X69689636Y-56228390D01*
X69689636Y-56228390D02*
X69737255Y-56180771D01*
X69737255Y-56180771D02*
X69832493Y-56133152D01*
X69832493Y-56133152D02*
X70022969Y-56133152D01*
X70022969Y-56133152D02*
X70118207Y-56180771D01*
X71927731Y-56704580D02*
X71880112Y-56752200D01*
X71880112Y-56752200D02*
X71737255Y-56799819D01*
X71737255Y-56799819D02*
X71642017Y-56799819D01*
X71642017Y-56799819D02*
X71499160Y-56752200D01*
X71499160Y-56752200D02*
X71403922Y-56656961D01*
X71403922Y-56656961D02*
X71356303Y-56561723D01*
X71356303Y-56561723D02*
X71308684Y-56371247D01*
X71308684Y-56371247D02*
X71308684Y-56228390D01*
X71308684Y-56228390D02*
X71356303Y-56037914D01*
X71356303Y-56037914D02*
X71403922Y-55942676D01*
X71403922Y-55942676D02*
X71499160Y-55847438D01*
X71499160Y-55847438D02*
X71642017Y-55799819D01*
X71642017Y-55799819D02*
X71737255Y-55799819D01*
X71737255Y-55799819D02*
X71880112Y-55847438D01*
X71880112Y-55847438D02*
X71927731Y-55895057D01*
X72784874Y-56799819D02*
X72784874Y-56276009D01*
X72784874Y-56276009D02*
X72737255Y-56180771D01*
X72737255Y-56180771D02*
X72642017Y-56133152D01*
X72642017Y-56133152D02*
X72451541Y-56133152D01*
X72451541Y-56133152D02*
X72356303Y-56180771D01*
X72784874Y-56752200D02*
X72689636Y-56799819D01*
X72689636Y-56799819D02*
X72451541Y-56799819D01*
X72451541Y-56799819D02*
X72356303Y-56752200D01*
X72356303Y-56752200D02*
X72308684Y-56656961D01*
X72308684Y-56656961D02*
X72308684Y-56561723D01*
X72308684Y-56561723D02*
X72356303Y-56466485D01*
X72356303Y-56466485D02*
X72451541Y-56418866D01*
X72451541Y-56418866D02*
X72689636Y-56418866D01*
X72689636Y-56418866D02*
X72784874Y-56371247D01*
X73403922Y-56799819D02*
X73308684Y-56752200D01*
X73308684Y-56752200D02*
X73261065Y-56656961D01*
X73261065Y-56656961D02*
X73261065Y-55799819D01*
X73689637Y-56133152D02*
X73927732Y-56799819D01*
X73927732Y-56799819D02*
X74165827Y-56133152D01*
X74689637Y-56799819D02*
X74594399Y-56752200D01*
X74594399Y-56752200D02*
X74546780Y-56704580D01*
X74546780Y-56704580D02*
X74499161Y-56609342D01*
X74499161Y-56609342D02*
X74499161Y-56323628D01*
X74499161Y-56323628D02*
X74546780Y-56228390D01*
X74546780Y-56228390D02*
X74594399Y-56180771D01*
X74594399Y-56180771D02*
X74689637Y-56133152D01*
X74689637Y-56133152D02*
X74832494Y-56133152D01*
X74832494Y-56133152D02*
X74927732Y-56180771D01*
X74927732Y-56180771D02*
X74975351Y-56228390D01*
X74975351Y-56228390D02*
X75022970Y-56323628D01*
X75022970Y-56323628D02*
X75022970Y-56609342D01*
X75022970Y-56609342D02*
X74975351Y-56704580D01*
X74975351Y-56704580D02*
X74927732Y-56752200D01*
X74927732Y-56752200D02*
X74832494Y-56799819D01*
X74832494Y-56799819D02*
X74689637Y-56799819D01*
X76213447Y-56799819D02*
X76213447Y-55799819D01*
X76213447Y-56276009D02*
X76784875Y-56276009D01*
X76784875Y-56799819D02*
X76784875Y-55799819D01*
X77642018Y-56752200D02*
X77546780Y-56799819D01*
X77546780Y-56799819D02*
X77356304Y-56799819D01*
X77356304Y-56799819D02*
X77261066Y-56752200D01*
X77261066Y-56752200D02*
X77213447Y-56656961D01*
X77213447Y-56656961D02*
X77213447Y-56276009D01*
X77213447Y-56276009D02*
X77261066Y-56180771D01*
X77261066Y-56180771D02*
X77356304Y-56133152D01*
X77356304Y-56133152D02*
X77546780Y-56133152D01*
X77546780Y-56133152D02*
X77642018Y-56180771D01*
X77642018Y-56180771D02*
X77689637Y-56276009D01*
X77689637Y-56276009D02*
X77689637Y-56371247D01*
X77689637Y-56371247D02*
X77213447Y-56466485D01*
X78118209Y-56799819D02*
X78118209Y-56133152D01*
X78118209Y-56323628D02*
X78165828Y-56228390D01*
X78165828Y-56228390D02*
X78213447Y-56180771D01*
X78213447Y-56180771D02*
X78308685Y-56133152D01*
X78308685Y-56133152D02*
X78403923Y-56133152D01*
X79118209Y-56752200D02*
X79022971Y-56799819D01*
X79022971Y-56799819D02*
X78832495Y-56799819D01*
X78832495Y-56799819D02*
X78737257Y-56752200D01*
X78737257Y-56752200D02*
X78689638Y-56656961D01*
X78689638Y-56656961D02*
X78689638Y-56276009D01*
X78689638Y-56276009D02*
X78737257Y-56180771D01*
X78737257Y-56180771D02*
X78832495Y-56133152D01*
X78832495Y-56133152D02*
X79022971Y-56133152D01*
X79022971Y-56133152D02*
X79118209Y-56180771D01*
X79118209Y-56180771D02*
X79165828Y-56276009D01*
X79165828Y-56276009D02*
X79165828Y-56371247D01*
X79165828Y-56371247D02*
X78689638Y-56466485D01*
X80022971Y-56799819D02*
X80022971Y-55799819D01*
X80022971Y-56752200D02*
X79927733Y-56799819D01*
X79927733Y-56799819D02*
X79737257Y-56799819D01*
X79737257Y-56799819D02*
X79642019Y-56752200D01*
X79642019Y-56752200D02*
X79594400Y-56704580D01*
X79594400Y-56704580D02*
X79546781Y-56609342D01*
X79546781Y-56609342D02*
X79546781Y-56323628D01*
X79546781Y-56323628D02*
X79594400Y-56228390D01*
X79594400Y-56228390D02*
X79642019Y-56180771D01*
X79642019Y-56180771D02*
X79737257Y-56133152D01*
X79737257Y-56133152D02*
X79927733Y-56133152D01*
X79927733Y-56133152D02*
X80022971Y-56180771D01*
X80880114Y-56752200D02*
X80784876Y-56799819D01*
X80784876Y-56799819D02*
X80594400Y-56799819D01*
X80594400Y-56799819D02*
X80499162Y-56752200D01*
X80499162Y-56752200D02*
X80451543Y-56656961D01*
X80451543Y-56656961D02*
X80451543Y-56276009D01*
X80451543Y-56276009D02*
X80499162Y-56180771D01*
X80499162Y-56180771D02*
X80594400Y-56133152D01*
X80594400Y-56133152D02*
X80784876Y-56133152D01*
X80784876Y-56133152D02*
X80880114Y-56180771D01*
X80880114Y-56180771D02*
X80927733Y-56276009D01*
X80927733Y-56276009D02*
X80927733Y-56371247D01*
X80927733Y-56371247D02*
X80451543Y-56466485D01*
X81356305Y-56799819D02*
X81356305Y-56133152D01*
X81356305Y-56323628D02*
X81403924Y-56228390D01*
X81403924Y-56228390D02*
X81451543Y-56180771D01*
X81451543Y-56180771D02*
X81546781Y-56133152D01*
X81546781Y-56133152D02*
X81642019Y-56133152D01*
X82118210Y-56799819D02*
X82022972Y-56752200D01*
X82022972Y-56752200D02*
X81975353Y-56704580D01*
X81975353Y-56704580D02*
X81927734Y-56609342D01*
X81927734Y-56609342D02*
X81927734Y-56323628D01*
X81927734Y-56323628D02*
X81975353Y-56228390D01*
X81975353Y-56228390D02*
X82022972Y-56180771D01*
X82022972Y-56180771D02*
X82118210Y-56133152D01*
X82118210Y-56133152D02*
X82261067Y-56133152D01*
X82261067Y-56133152D02*
X82356305Y-56180771D01*
X82356305Y-56180771D02*
X82403924Y-56228390D01*
X82403924Y-56228390D02*
X82451543Y-56323628D01*
X82451543Y-56323628D02*
X82451543Y-56609342D01*
X82451543Y-56609342D02*
X82403924Y-56704580D01*
X82403924Y-56704580D02*
X82356305Y-56752200D01*
X82356305Y-56752200D02*
X82261067Y-56799819D01*
X82261067Y-56799819D02*
X82118210Y-56799819D01*
X111563333Y-102114819D02*
X111230000Y-101638628D01*
X110991905Y-102114819D02*
X110991905Y-101114819D01*
X110991905Y-101114819D02*
X111372857Y-101114819D01*
X111372857Y-101114819D02*
X111468095Y-101162438D01*
X111468095Y-101162438D02*
X111515714Y-101210057D01*
X111515714Y-101210057D02*
X111563333Y-101305295D01*
X111563333Y-101305295D02*
X111563333Y-101448152D01*
X111563333Y-101448152D02*
X111515714Y-101543390D01*
X111515714Y-101543390D02*
X111468095Y-101591009D01*
X111468095Y-101591009D02*
X111372857Y-101638628D01*
X111372857Y-101638628D02*
X110991905Y-101638628D01*
X112039524Y-102114819D02*
X112230000Y-102114819D01*
X112230000Y-102114819D02*
X112325238Y-102067200D01*
X112325238Y-102067200D02*
X112372857Y-102019580D01*
X112372857Y-102019580D02*
X112468095Y-101876723D01*
X112468095Y-101876723D02*
X112515714Y-101686247D01*
X112515714Y-101686247D02*
X112515714Y-101305295D01*
X112515714Y-101305295D02*
X112468095Y-101210057D01*
X112468095Y-101210057D02*
X112420476Y-101162438D01*
X112420476Y-101162438D02*
X112325238Y-101114819D01*
X112325238Y-101114819D02*
X112134762Y-101114819D01*
X112134762Y-101114819D02*
X112039524Y-101162438D01*
X112039524Y-101162438D02*
X111991905Y-101210057D01*
X111991905Y-101210057D02*
X111944286Y-101305295D01*
X111944286Y-101305295D02*
X111944286Y-101543390D01*
X111944286Y-101543390D02*
X111991905Y-101638628D01*
X111991905Y-101638628D02*
X112039524Y-101686247D01*
X112039524Y-101686247D02*
X112134762Y-101733866D01*
X112134762Y-101733866D02*
X112325238Y-101733866D01*
X112325238Y-101733866D02*
X112420476Y-101686247D01*
X112420476Y-101686247D02*
X112468095Y-101638628D01*
X112468095Y-101638628D02*
X112515714Y-101543390D01*
X124563333Y-57609580D02*
X124515714Y-57657200D01*
X124515714Y-57657200D02*
X124372857Y-57704819D01*
X124372857Y-57704819D02*
X124277619Y-57704819D01*
X124277619Y-57704819D02*
X124134762Y-57657200D01*
X124134762Y-57657200D02*
X124039524Y-57561961D01*
X124039524Y-57561961D02*
X123991905Y-57466723D01*
X123991905Y-57466723D02*
X123944286Y-57276247D01*
X123944286Y-57276247D02*
X123944286Y-57133390D01*
X123944286Y-57133390D02*
X123991905Y-56942914D01*
X123991905Y-56942914D02*
X124039524Y-56847676D01*
X124039524Y-56847676D02*
X124134762Y-56752438D01*
X124134762Y-56752438D02*
X124277619Y-56704819D01*
X124277619Y-56704819D02*
X124372857Y-56704819D01*
X124372857Y-56704819D02*
X124515714Y-56752438D01*
X124515714Y-56752438D02*
X124563333Y-56800057D01*
X125420476Y-57038152D02*
X125420476Y-57704819D01*
X125182381Y-56657200D02*
X124944286Y-57371485D01*
X124944286Y-57371485D02*
X125563333Y-57371485D01*
X93504761Y-92930057D02*
X93409523Y-92882438D01*
X93409523Y-92882438D02*
X93314285Y-92787200D01*
X93314285Y-92787200D02*
X93171428Y-92644342D01*
X93171428Y-92644342D02*
X93076190Y-92596723D01*
X93076190Y-92596723D02*
X92980952Y-92596723D01*
X93028571Y-92834819D02*
X92933333Y-92787200D01*
X92933333Y-92787200D02*
X92838095Y-92691961D01*
X92838095Y-92691961D02*
X92790476Y-92501485D01*
X92790476Y-92501485D02*
X92790476Y-92168152D01*
X92790476Y-92168152D02*
X92838095Y-91977676D01*
X92838095Y-91977676D02*
X92933333Y-91882438D01*
X92933333Y-91882438D02*
X93028571Y-91834819D01*
X93028571Y-91834819D02*
X93219047Y-91834819D01*
X93219047Y-91834819D02*
X93314285Y-91882438D01*
X93314285Y-91882438D02*
X93409523Y-91977676D01*
X93409523Y-91977676D02*
X93457142Y-92168152D01*
X93457142Y-92168152D02*
X93457142Y-92501485D01*
X93457142Y-92501485D02*
X93409523Y-92691961D01*
X93409523Y-92691961D02*
X93314285Y-92787200D01*
X93314285Y-92787200D02*
X93219047Y-92834819D01*
X93219047Y-92834819D02*
X93028571Y-92834819D01*
X93838095Y-91930057D02*
X93885714Y-91882438D01*
X93885714Y-91882438D02*
X93980952Y-91834819D01*
X93980952Y-91834819D02*
X94219047Y-91834819D01*
X94219047Y-91834819D02*
X94314285Y-91882438D01*
X94314285Y-91882438D02*
X94361904Y-91930057D01*
X94361904Y-91930057D02*
X94409523Y-92025295D01*
X94409523Y-92025295D02*
X94409523Y-92120533D01*
X94409523Y-92120533D02*
X94361904Y-92263390D01*
X94361904Y-92263390D02*
X93790476Y-92834819D01*
X93790476Y-92834819D02*
X94409523Y-92834819D01*
X115488095Y-106554819D02*
X116059523Y-106554819D01*
X115773809Y-107554819D02*
X115773809Y-106554819D01*
X116392857Y-107554819D02*
X116392857Y-106554819D01*
X116392857Y-106554819D02*
X116773809Y-106554819D01*
X116773809Y-106554819D02*
X116869047Y-106602438D01*
X116869047Y-106602438D02*
X116916666Y-106650057D01*
X116916666Y-106650057D02*
X116964285Y-106745295D01*
X116964285Y-106745295D02*
X116964285Y-106888152D01*
X116964285Y-106888152D02*
X116916666Y-106983390D01*
X116916666Y-106983390D02*
X116869047Y-107031009D01*
X116869047Y-107031009D02*
X116773809Y-107078628D01*
X116773809Y-107078628D02*
X116392857Y-107078628D01*
X117821428Y-106554819D02*
X117630952Y-106554819D01*
X117630952Y-106554819D02*
X117535714Y-106602438D01*
X117535714Y-106602438D02*
X117488095Y-106650057D01*
X117488095Y-106650057D02*
X117392857Y-106792914D01*
X117392857Y-106792914D02*
X117345238Y-106983390D01*
X117345238Y-106983390D02*
X117345238Y-107364342D01*
X117345238Y-107364342D02*
X117392857Y-107459580D01*
X117392857Y-107459580D02*
X117440476Y-107507200D01*
X117440476Y-107507200D02*
X117535714Y-107554819D01*
X117535714Y-107554819D02*
X117726190Y-107554819D01*
X117726190Y-107554819D02*
X117821428Y-107507200D01*
X117821428Y-107507200D02*
X117869047Y-107459580D01*
X117869047Y-107459580D02*
X117916666Y-107364342D01*
X117916666Y-107364342D02*
X117916666Y-107126247D01*
X117916666Y-107126247D02*
X117869047Y-107031009D01*
X117869047Y-107031009D02*
X117821428Y-106983390D01*
X117821428Y-106983390D02*
X117726190Y-106935771D01*
X117726190Y-106935771D02*
X117535714Y-106935771D01*
X117535714Y-106935771D02*
X117440476Y-106983390D01*
X117440476Y-106983390D02*
X117392857Y-107031009D01*
X117392857Y-107031009D02*
X117345238Y-107126247D01*
X133183333Y-102349580D02*
X133135714Y-102397200D01*
X133135714Y-102397200D02*
X132992857Y-102444819D01*
X132992857Y-102444819D02*
X132897619Y-102444819D01*
X132897619Y-102444819D02*
X132754762Y-102397200D01*
X132754762Y-102397200D02*
X132659524Y-102301961D01*
X132659524Y-102301961D02*
X132611905Y-102206723D01*
X132611905Y-102206723D02*
X132564286Y-102016247D01*
X132564286Y-102016247D02*
X132564286Y-101873390D01*
X132564286Y-101873390D02*
X132611905Y-101682914D01*
X132611905Y-101682914D02*
X132659524Y-101587676D01*
X132659524Y-101587676D02*
X132754762Y-101492438D01*
X132754762Y-101492438D02*
X132897619Y-101444819D01*
X132897619Y-101444819D02*
X132992857Y-101444819D01*
X132992857Y-101444819D02*
X133135714Y-101492438D01*
X133135714Y-101492438D02*
X133183333Y-101540057D01*
X133659524Y-102444819D02*
X133850000Y-102444819D01*
X133850000Y-102444819D02*
X133945238Y-102397200D01*
X133945238Y-102397200D02*
X133992857Y-102349580D01*
X133992857Y-102349580D02*
X134088095Y-102206723D01*
X134088095Y-102206723D02*
X134135714Y-102016247D01*
X134135714Y-102016247D02*
X134135714Y-101635295D01*
X134135714Y-101635295D02*
X134088095Y-101540057D01*
X134088095Y-101540057D02*
X134040476Y-101492438D01*
X134040476Y-101492438D02*
X133945238Y-101444819D01*
X133945238Y-101444819D02*
X133754762Y-101444819D01*
X133754762Y-101444819D02*
X133659524Y-101492438D01*
X133659524Y-101492438D02*
X133611905Y-101540057D01*
X133611905Y-101540057D02*
X133564286Y-101635295D01*
X133564286Y-101635295D02*
X133564286Y-101873390D01*
X133564286Y-101873390D02*
X133611905Y-101968628D01*
X133611905Y-101968628D02*
X133659524Y-102016247D01*
X133659524Y-102016247D02*
X133754762Y-102063866D01*
X133754762Y-102063866D02*
X133945238Y-102063866D01*
X133945238Y-102063866D02*
X134040476Y-102016247D01*
X134040476Y-102016247D02*
X134088095Y-101968628D01*
X134088095Y-101968628D02*
X134135714Y-101873390D01*
X103523333Y-74009580D02*
X103475714Y-74057200D01*
X103475714Y-74057200D02*
X103332857Y-74104819D01*
X103332857Y-74104819D02*
X103237619Y-74104819D01*
X103237619Y-74104819D02*
X103094762Y-74057200D01*
X103094762Y-74057200D02*
X102999524Y-73961961D01*
X102999524Y-73961961D02*
X102951905Y-73866723D01*
X102951905Y-73866723D02*
X102904286Y-73676247D01*
X102904286Y-73676247D02*
X102904286Y-73533390D01*
X102904286Y-73533390D02*
X102951905Y-73342914D01*
X102951905Y-73342914D02*
X102999524Y-73247676D01*
X102999524Y-73247676D02*
X103094762Y-73152438D01*
X103094762Y-73152438D02*
X103237619Y-73104819D01*
X103237619Y-73104819D02*
X103332857Y-73104819D01*
X103332857Y-73104819D02*
X103475714Y-73152438D01*
X103475714Y-73152438D02*
X103523333Y-73200057D01*
X104380476Y-73104819D02*
X104190000Y-73104819D01*
X104190000Y-73104819D02*
X104094762Y-73152438D01*
X104094762Y-73152438D02*
X104047143Y-73200057D01*
X104047143Y-73200057D02*
X103951905Y-73342914D01*
X103951905Y-73342914D02*
X103904286Y-73533390D01*
X103904286Y-73533390D02*
X103904286Y-73914342D01*
X103904286Y-73914342D02*
X103951905Y-74009580D01*
X103951905Y-74009580D02*
X103999524Y-74057200D01*
X103999524Y-74057200D02*
X104094762Y-74104819D01*
X104094762Y-74104819D02*
X104285238Y-74104819D01*
X104285238Y-74104819D02*
X104380476Y-74057200D01*
X104380476Y-74057200D02*
X104428095Y-74009580D01*
X104428095Y-74009580D02*
X104475714Y-73914342D01*
X104475714Y-73914342D02*
X104475714Y-73676247D01*
X104475714Y-73676247D02*
X104428095Y-73581009D01*
X104428095Y-73581009D02*
X104380476Y-73533390D01*
X104380476Y-73533390D02*
X104285238Y-73485771D01*
X104285238Y-73485771D02*
X104094762Y-73485771D01*
X104094762Y-73485771D02*
X103999524Y-73533390D01*
X103999524Y-73533390D02*
X103951905Y-73581009D01*
X103951905Y-73581009D02*
X103904286Y-73676247D01*
X120348095Y-106494819D02*
X120919523Y-106494819D01*
X120633809Y-107494819D02*
X120633809Y-106494819D01*
X121252857Y-107494819D02*
X121252857Y-106494819D01*
X121252857Y-106494819D02*
X121633809Y-106494819D01*
X121633809Y-106494819D02*
X121729047Y-106542438D01*
X121729047Y-106542438D02*
X121776666Y-106590057D01*
X121776666Y-106590057D02*
X121824285Y-106685295D01*
X121824285Y-106685295D02*
X121824285Y-106828152D01*
X121824285Y-106828152D02*
X121776666Y-106923390D01*
X121776666Y-106923390D02*
X121729047Y-106971009D01*
X121729047Y-106971009D02*
X121633809Y-107018628D01*
X121633809Y-107018628D02*
X121252857Y-107018628D01*
X122776666Y-107494819D02*
X122205238Y-107494819D01*
X122490952Y-107494819D02*
X122490952Y-106494819D01*
X122490952Y-106494819D02*
X122395714Y-106637676D01*
X122395714Y-106637676D02*
X122300476Y-106732914D01*
X122300476Y-106732914D02*
X122205238Y-106780533D01*
X78033333Y-99029580D02*
X77985714Y-99077200D01*
X77985714Y-99077200D02*
X77842857Y-99124819D01*
X77842857Y-99124819D02*
X77747619Y-99124819D01*
X77747619Y-99124819D02*
X77604762Y-99077200D01*
X77604762Y-99077200D02*
X77509524Y-98981961D01*
X77509524Y-98981961D02*
X77461905Y-98886723D01*
X77461905Y-98886723D02*
X77414286Y-98696247D01*
X77414286Y-98696247D02*
X77414286Y-98553390D01*
X77414286Y-98553390D02*
X77461905Y-98362914D01*
X77461905Y-98362914D02*
X77509524Y-98267676D01*
X77509524Y-98267676D02*
X77604762Y-98172438D01*
X77604762Y-98172438D02*
X77747619Y-98124819D01*
X77747619Y-98124819D02*
X77842857Y-98124819D01*
X77842857Y-98124819D02*
X77985714Y-98172438D01*
X77985714Y-98172438D02*
X78033333Y-98220057D01*
X78366667Y-98124819D02*
X78985714Y-98124819D01*
X78985714Y-98124819D02*
X78652381Y-98505771D01*
X78652381Y-98505771D02*
X78795238Y-98505771D01*
X78795238Y-98505771D02*
X78890476Y-98553390D01*
X78890476Y-98553390D02*
X78938095Y-98601009D01*
X78938095Y-98601009D02*
X78985714Y-98696247D01*
X78985714Y-98696247D02*
X78985714Y-98934342D01*
X78985714Y-98934342D02*
X78938095Y-99029580D01*
X78938095Y-99029580D02*
X78890476Y-99077200D01*
X78890476Y-99077200D02*
X78795238Y-99124819D01*
X78795238Y-99124819D02*
X78509524Y-99124819D01*
X78509524Y-99124819D02*
X78414286Y-99077200D01*
X78414286Y-99077200D02*
X78366667Y-99029580D01*
X80243333Y-76934819D02*
X79910000Y-76458628D01*
X79671905Y-76934819D02*
X79671905Y-75934819D01*
X79671905Y-75934819D02*
X80052857Y-75934819D01*
X80052857Y-75934819D02*
X80148095Y-75982438D01*
X80148095Y-75982438D02*
X80195714Y-76030057D01*
X80195714Y-76030057D02*
X80243333Y-76125295D01*
X80243333Y-76125295D02*
X80243333Y-76268152D01*
X80243333Y-76268152D02*
X80195714Y-76363390D01*
X80195714Y-76363390D02*
X80148095Y-76411009D01*
X80148095Y-76411009D02*
X80052857Y-76458628D01*
X80052857Y-76458628D02*
X79671905Y-76458628D01*
X81195714Y-76934819D02*
X80624286Y-76934819D01*
X80910000Y-76934819D02*
X80910000Y-75934819D01*
X80910000Y-75934819D02*
X80814762Y-76077676D01*
X80814762Y-76077676D02*
X80719524Y-76172914D01*
X80719524Y-76172914D02*
X80624286Y-76220533D01*
X125023333Y-102079580D02*
X124975714Y-102127200D01*
X124975714Y-102127200D02*
X124832857Y-102174819D01*
X124832857Y-102174819D02*
X124737619Y-102174819D01*
X124737619Y-102174819D02*
X124594762Y-102127200D01*
X124594762Y-102127200D02*
X124499524Y-102031961D01*
X124499524Y-102031961D02*
X124451905Y-101936723D01*
X124451905Y-101936723D02*
X124404286Y-101746247D01*
X124404286Y-101746247D02*
X124404286Y-101603390D01*
X124404286Y-101603390D02*
X124451905Y-101412914D01*
X124451905Y-101412914D02*
X124499524Y-101317676D01*
X124499524Y-101317676D02*
X124594762Y-101222438D01*
X124594762Y-101222438D02*
X124737619Y-101174819D01*
X124737619Y-101174819D02*
X124832857Y-101174819D01*
X124832857Y-101174819D02*
X124975714Y-101222438D01*
X124975714Y-101222438D02*
X125023333Y-101270057D01*
X125928095Y-101174819D02*
X125451905Y-101174819D01*
X125451905Y-101174819D02*
X125404286Y-101651009D01*
X125404286Y-101651009D02*
X125451905Y-101603390D01*
X125451905Y-101603390D02*
X125547143Y-101555771D01*
X125547143Y-101555771D02*
X125785238Y-101555771D01*
X125785238Y-101555771D02*
X125880476Y-101603390D01*
X125880476Y-101603390D02*
X125928095Y-101651009D01*
X125928095Y-101651009D02*
X125975714Y-101746247D01*
X125975714Y-101746247D02*
X125975714Y-101984342D01*
X125975714Y-101984342D02*
X125928095Y-102079580D01*
X125928095Y-102079580D02*
X125880476Y-102127200D01*
X125880476Y-102127200D02*
X125785238Y-102174819D01*
X125785238Y-102174819D02*
X125547143Y-102174819D01*
X125547143Y-102174819D02*
X125451905Y-102127200D01*
X125451905Y-102127200D02*
X125404286Y-102079580D01*
X148008095Y-62994819D02*
X148579523Y-62994819D01*
X148293809Y-63994819D02*
X148293809Y-62994819D01*
X148912857Y-63994819D02*
X148912857Y-62994819D01*
X148912857Y-62994819D02*
X149293809Y-62994819D01*
X149293809Y-62994819D02*
X149389047Y-63042438D01*
X149389047Y-63042438D02*
X149436666Y-63090057D01*
X149436666Y-63090057D02*
X149484285Y-63185295D01*
X149484285Y-63185295D02*
X149484285Y-63328152D01*
X149484285Y-63328152D02*
X149436666Y-63423390D01*
X149436666Y-63423390D02*
X149389047Y-63471009D01*
X149389047Y-63471009D02*
X149293809Y-63518628D01*
X149293809Y-63518628D02*
X148912857Y-63518628D01*
X150341428Y-63328152D02*
X150341428Y-63994819D01*
X150103333Y-62947200D02*
X149865238Y-63661485D01*
X149865238Y-63661485D02*
X150484285Y-63661485D01*
X115856666Y-64224819D02*
X115856666Y-64939104D01*
X115856666Y-64939104D02*
X115809047Y-65081961D01*
X115809047Y-65081961D02*
X115713809Y-65177200D01*
X115713809Y-65177200D02*
X115570952Y-65224819D01*
X115570952Y-65224819D02*
X115475714Y-65224819D01*
X116285238Y-64320057D02*
X116332857Y-64272438D01*
X116332857Y-64272438D02*
X116428095Y-64224819D01*
X116428095Y-64224819D02*
X116666190Y-64224819D01*
X116666190Y-64224819D02*
X116761428Y-64272438D01*
X116761428Y-64272438D02*
X116809047Y-64320057D01*
X116809047Y-64320057D02*
X116856666Y-64415295D01*
X116856666Y-64415295D02*
X116856666Y-64510533D01*
X116856666Y-64510533D02*
X116809047Y-64653390D01*
X116809047Y-64653390D02*
X116237619Y-65224819D01*
X116237619Y-65224819D02*
X116856666Y-65224819D01*
X104426666Y-64414819D02*
X104426666Y-65129104D01*
X104426666Y-65129104D02*
X104379047Y-65271961D01*
X104379047Y-65271961D02*
X104283809Y-65367200D01*
X104283809Y-65367200D02*
X104140952Y-65414819D01*
X104140952Y-65414819D02*
X104045714Y-65414819D01*
X104807619Y-64414819D02*
X105426666Y-64414819D01*
X105426666Y-64414819D02*
X105093333Y-64795771D01*
X105093333Y-64795771D02*
X105236190Y-64795771D01*
X105236190Y-64795771D02*
X105331428Y-64843390D01*
X105331428Y-64843390D02*
X105379047Y-64891009D01*
X105379047Y-64891009D02*
X105426666Y-64986247D01*
X105426666Y-64986247D02*
X105426666Y-65224342D01*
X105426666Y-65224342D02*
X105379047Y-65319580D01*
X105379047Y-65319580D02*
X105331428Y-65367200D01*
X105331428Y-65367200D02*
X105236190Y-65414819D01*
X105236190Y-65414819D02*
X104950476Y-65414819D01*
X104950476Y-65414819D02*
X104855238Y-65367200D01*
X104855238Y-65367200D02*
X104807619Y-65319580D01*
X72253333Y-77014819D02*
X71920000Y-76538628D01*
X71681905Y-77014819D02*
X71681905Y-76014819D01*
X71681905Y-76014819D02*
X72062857Y-76014819D01*
X72062857Y-76014819D02*
X72158095Y-76062438D01*
X72158095Y-76062438D02*
X72205714Y-76110057D01*
X72205714Y-76110057D02*
X72253333Y-76205295D01*
X72253333Y-76205295D02*
X72253333Y-76348152D01*
X72253333Y-76348152D02*
X72205714Y-76443390D01*
X72205714Y-76443390D02*
X72158095Y-76491009D01*
X72158095Y-76491009D02*
X72062857Y-76538628D01*
X72062857Y-76538628D02*
X71681905Y-76538628D01*
X72586667Y-76014819D02*
X73205714Y-76014819D01*
X73205714Y-76014819D02*
X72872381Y-76395771D01*
X72872381Y-76395771D02*
X73015238Y-76395771D01*
X73015238Y-76395771D02*
X73110476Y-76443390D01*
X73110476Y-76443390D02*
X73158095Y-76491009D01*
X73158095Y-76491009D02*
X73205714Y-76586247D01*
X73205714Y-76586247D02*
X73205714Y-76824342D01*
X73205714Y-76824342D02*
X73158095Y-76919580D01*
X73158095Y-76919580D02*
X73110476Y-76967200D01*
X73110476Y-76967200D02*
X73015238Y-77014819D01*
X73015238Y-77014819D02*
X72729524Y-77014819D01*
X72729524Y-77014819D02*
X72634286Y-76967200D01*
X72634286Y-76967200D02*
X72586667Y-76919580D01*
X71046666Y-113034819D02*
X71046666Y-113749104D01*
X71046666Y-113749104D02*
X70999047Y-113891961D01*
X70999047Y-113891961D02*
X70903809Y-113987200D01*
X70903809Y-113987200D02*
X70760952Y-114034819D01*
X70760952Y-114034819D02*
X70665714Y-114034819D01*
X72046666Y-114034819D02*
X71475238Y-114034819D01*
X71760952Y-114034819D02*
X71760952Y-113034819D01*
X71760952Y-113034819D02*
X71665714Y-113177676D01*
X71665714Y-113177676D02*
X71570476Y-113272914D01*
X71570476Y-113272914D02*
X71475238Y-113320533D01*
X124830833Y-63264819D02*
X124497500Y-62788628D01*
X124259405Y-63264819D02*
X124259405Y-62264819D01*
X124259405Y-62264819D02*
X124640357Y-62264819D01*
X124640357Y-62264819D02*
X124735595Y-62312438D01*
X124735595Y-62312438D02*
X124783214Y-62360057D01*
X124783214Y-62360057D02*
X124830833Y-62455295D01*
X124830833Y-62455295D02*
X124830833Y-62598152D01*
X124830833Y-62598152D02*
X124783214Y-62693390D01*
X124783214Y-62693390D02*
X124735595Y-62741009D01*
X124735595Y-62741009D02*
X124640357Y-62788628D01*
X124640357Y-62788628D02*
X124259405Y-62788628D01*
X125402262Y-62693390D02*
X125307024Y-62645771D01*
X125307024Y-62645771D02*
X125259405Y-62598152D01*
X125259405Y-62598152D02*
X125211786Y-62502914D01*
X125211786Y-62502914D02*
X125211786Y-62455295D01*
X125211786Y-62455295D02*
X125259405Y-62360057D01*
X125259405Y-62360057D02*
X125307024Y-62312438D01*
X125307024Y-62312438D02*
X125402262Y-62264819D01*
X125402262Y-62264819D02*
X125592738Y-62264819D01*
X125592738Y-62264819D02*
X125687976Y-62312438D01*
X125687976Y-62312438D02*
X125735595Y-62360057D01*
X125735595Y-62360057D02*
X125783214Y-62455295D01*
X125783214Y-62455295D02*
X125783214Y-62502914D01*
X125783214Y-62502914D02*
X125735595Y-62598152D01*
X125735595Y-62598152D02*
X125687976Y-62645771D01*
X125687976Y-62645771D02*
X125592738Y-62693390D01*
X125592738Y-62693390D02*
X125402262Y-62693390D01*
X125402262Y-62693390D02*
X125307024Y-62741009D01*
X125307024Y-62741009D02*
X125259405Y-62788628D01*
X125259405Y-62788628D02*
X125211786Y-62883866D01*
X125211786Y-62883866D02*
X125211786Y-63074342D01*
X125211786Y-63074342D02*
X125259405Y-63169580D01*
X125259405Y-63169580D02*
X125307024Y-63217200D01*
X125307024Y-63217200D02*
X125402262Y-63264819D01*
X125402262Y-63264819D02*
X125592738Y-63264819D01*
X125592738Y-63264819D02*
X125687976Y-63217200D01*
X125687976Y-63217200D02*
X125735595Y-63169580D01*
X125735595Y-63169580D02*
X125783214Y-63074342D01*
X125783214Y-63074342D02*
X125783214Y-62883866D01*
X125783214Y-62883866D02*
X125735595Y-62788628D01*
X125735595Y-62788628D02*
X125687976Y-62741009D01*
X125687976Y-62741009D02*
X125592738Y-62693390D01*
X92090833Y-69879580D02*
X92043214Y-69927200D01*
X92043214Y-69927200D02*
X91900357Y-69974819D01*
X91900357Y-69974819D02*
X91805119Y-69974819D01*
X91805119Y-69974819D02*
X91662262Y-69927200D01*
X91662262Y-69927200D02*
X91567024Y-69831961D01*
X91567024Y-69831961D02*
X91519405Y-69736723D01*
X91519405Y-69736723D02*
X91471786Y-69546247D01*
X91471786Y-69546247D02*
X91471786Y-69403390D01*
X91471786Y-69403390D02*
X91519405Y-69212914D01*
X91519405Y-69212914D02*
X91567024Y-69117676D01*
X91567024Y-69117676D02*
X91662262Y-69022438D01*
X91662262Y-69022438D02*
X91805119Y-68974819D01*
X91805119Y-68974819D02*
X91900357Y-68974819D01*
X91900357Y-68974819D02*
X92043214Y-69022438D01*
X92043214Y-69022438D02*
X92090833Y-69070057D01*
X93043214Y-69974819D02*
X92471786Y-69974819D01*
X92757500Y-69974819D02*
X92757500Y-68974819D01*
X92757500Y-68974819D02*
X92662262Y-69117676D01*
X92662262Y-69117676D02*
X92567024Y-69212914D01*
X92567024Y-69212914D02*
X92471786Y-69260533D01*
X92183333Y-74934819D02*
X91850000Y-74458628D01*
X91611905Y-74934819D02*
X91611905Y-73934819D01*
X91611905Y-73934819D02*
X91992857Y-73934819D01*
X91992857Y-73934819D02*
X92088095Y-73982438D01*
X92088095Y-73982438D02*
X92135714Y-74030057D01*
X92135714Y-74030057D02*
X92183333Y-74125295D01*
X92183333Y-74125295D02*
X92183333Y-74268152D01*
X92183333Y-74268152D02*
X92135714Y-74363390D01*
X92135714Y-74363390D02*
X92088095Y-74411009D01*
X92088095Y-74411009D02*
X91992857Y-74458628D01*
X91992857Y-74458628D02*
X91611905Y-74458628D01*
X93040476Y-73934819D02*
X92850000Y-73934819D01*
X92850000Y-73934819D02*
X92754762Y-73982438D01*
X92754762Y-73982438D02*
X92707143Y-74030057D01*
X92707143Y-74030057D02*
X92611905Y-74172914D01*
X92611905Y-74172914D02*
X92564286Y-74363390D01*
X92564286Y-74363390D02*
X92564286Y-74744342D01*
X92564286Y-74744342D02*
X92611905Y-74839580D01*
X92611905Y-74839580D02*
X92659524Y-74887200D01*
X92659524Y-74887200D02*
X92754762Y-74934819D01*
X92754762Y-74934819D02*
X92945238Y-74934819D01*
X92945238Y-74934819D02*
X93040476Y-74887200D01*
X93040476Y-74887200D02*
X93088095Y-74839580D01*
X93088095Y-74839580D02*
X93135714Y-74744342D01*
X93135714Y-74744342D02*
X93135714Y-74506247D01*
X93135714Y-74506247D02*
X93088095Y-74411009D01*
X93088095Y-74411009D02*
X93040476Y-74363390D01*
X93040476Y-74363390D02*
X92945238Y-74315771D01*
X92945238Y-74315771D02*
X92754762Y-74315771D01*
X92754762Y-74315771D02*
X92659524Y-74363390D01*
X92659524Y-74363390D02*
X92611905Y-74411009D01*
X92611905Y-74411009D02*
X92564286Y-74506247D01*
X87523333Y-100804819D02*
X87190000Y-100328628D01*
X86951905Y-100804819D02*
X86951905Y-99804819D01*
X86951905Y-99804819D02*
X87332857Y-99804819D01*
X87332857Y-99804819D02*
X87428095Y-99852438D01*
X87428095Y-99852438D02*
X87475714Y-99900057D01*
X87475714Y-99900057D02*
X87523333Y-99995295D01*
X87523333Y-99995295D02*
X87523333Y-100138152D01*
X87523333Y-100138152D02*
X87475714Y-100233390D01*
X87475714Y-100233390D02*
X87428095Y-100281009D01*
X87428095Y-100281009D02*
X87332857Y-100328628D01*
X87332857Y-100328628D02*
X86951905Y-100328628D01*
X88428095Y-99804819D02*
X87951905Y-99804819D01*
X87951905Y-99804819D02*
X87904286Y-100281009D01*
X87904286Y-100281009D02*
X87951905Y-100233390D01*
X87951905Y-100233390D02*
X88047143Y-100185771D01*
X88047143Y-100185771D02*
X88285238Y-100185771D01*
X88285238Y-100185771D02*
X88380476Y-100233390D01*
X88380476Y-100233390D02*
X88428095Y-100281009D01*
X88428095Y-100281009D02*
X88475714Y-100376247D01*
X88475714Y-100376247D02*
X88475714Y-100614342D01*
X88475714Y-100614342D02*
X88428095Y-100709580D01*
X88428095Y-100709580D02*
X88380476Y-100757200D01*
X88380476Y-100757200D02*
X88285238Y-100804819D01*
X88285238Y-100804819D02*
X88047143Y-100804819D01*
X88047143Y-100804819D02*
X87951905Y-100757200D01*
X87951905Y-100757200D02*
X87904286Y-100709580D01*
X66258095Y-87024819D02*
X66258095Y-87834342D01*
X66258095Y-87834342D02*
X66305714Y-87929580D01*
X66305714Y-87929580D02*
X66353333Y-87977200D01*
X66353333Y-87977200D02*
X66448571Y-88024819D01*
X66448571Y-88024819D02*
X66639047Y-88024819D01*
X66639047Y-88024819D02*
X66734285Y-87977200D01*
X66734285Y-87977200D02*
X66781904Y-87929580D01*
X66781904Y-87929580D02*
X66829523Y-87834342D01*
X66829523Y-87834342D02*
X66829523Y-87024819D01*
X67781904Y-87024819D02*
X67305714Y-87024819D01*
X67305714Y-87024819D02*
X67258095Y-87501009D01*
X67258095Y-87501009D02*
X67305714Y-87453390D01*
X67305714Y-87453390D02*
X67400952Y-87405771D01*
X67400952Y-87405771D02*
X67639047Y-87405771D01*
X67639047Y-87405771D02*
X67734285Y-87453390D01*
X67734285Y-87453390D02*
X67781904Y-87501009D01*
X67781904Y-87501009D02*
X67829523Y-87596247D01*
X67829523Y-87596247D02*
X67829523Y-87834342D01*
X67829523Y-87834342D02*
X67781904Y-87929580D01*
X67781904Y-87929580D02*
X67734285Y-87977200D01*
X67734285Y-87977200D02*
X67639047Y-88024819D01*
X67639047Y-88024819D02*
X67400952Y-88024819D01*
X67400952Y-88024819D02*
X67305714Y-87977200D01*
X67305714Y-87977200D02*
X67258095Y-87929580D01*
X94206905Y-101504819D02*
X94206905Y-100504819D01*
X94206905Y-100504819D02*
X94445000Y-100504819D01*
X94445000Y-100504819D02*
X94587857Y-100552438D01*
X94587857Y-100552438D02*
X94683095Y-100647676D01*
X94683095Y-100647676D02*
X94730714Y-100742914D01*
X94730714Y-100742914D02*
X94778333Y-100933390D01*
X94778333Y-100933390D02*
X94778333Y-101076247D01*
X94778333Y-101076247D02*
X94730714Y-101266723D01*
X94730714Y-101266723D02*
X94683095Y-101361961D01*
X94683095Y-101361961D02*
X94587857Y-101457200D01*
X94587857Y-101457200D02*
X94445000Y-101504819D01*
X94445000Y-101504819D02*
X94206905Y-101504819D01*
X95730714Y-101504819D02*
X95159286Y-101504819D01*
X95445000Y-101504819D02*
X95445000Y-100504819D01*
X95445000Y-100504819D02*
X95349762Y-100647676D01*
X95349762Y-100647676D02*
X95254524Y-100742914D01*
X95254524Y-100742914D02*
X95159286Y-100790533D01*
X153118095Y-63094819D02*
X153689523Y-63094819D01*
X153403809Y-64094819D02*
X153403809Y-63094819D01*
X154022857Y-64094819D02*
X154022857Y-63094819D01*
X154022857Y-63094819D02*
X154403809Y-63094819D01*
X154403809Y-63094819D02*
X154499047Y-63142438D01*
X154499047Y-63142438D02*
X154546666Y-63190057D01*
X154546666Y-63190057D02*
X154594285Y-63285295D01*
X154594285Y-63285295D02*
X154594285Y-63428152D01*
X154594285Y-63428152D02*
X154546666Y-63523390D01*
X154546666Y-63523390D02*
X154499047Y-63571009D01*
X154499047Y-63571009D02*
X154403809Y-63618628D01*
X154403809Y-63618628D02*
X154022857Y-63618628D01*
X155499047Y-63094819D02*
X155022857Y-63094819D01*
X155022857Y-63094819D02*
X154975238Y-63571009D01*
X154975238Y-63571009D02*
X155022857Y-63523390D01*
X155022857Y-63523390D02*
X155118095Y-63475771D01*
X155118095Y-63475771D02*
X155356190Y-63475771D01*
X155356190Y-63475771D02*
X155451428Y-63523390D01*
X155451428Y-63523390D02*
X155499047Y-63571009D01*
X155499047Y-63571009D02*
X155546666Y-63666247D01*
X155546666Y-63666247D02*
X155546666Y-63904342D01*
X155546666Y-63904342D02*
X155499047Y-63999580D01*
X155499047Y-63999580D02*
X155451428Y-64047200D01*
X155451428Y-64047200D02*
X155356190Y-64094819D01*
X155356190Y-64094819D02*
X155118095Y-64094819D01*
X155118095Y-64094819D02*
X155022857Y-64047200D01*
X155022857Y-64047200D02*
X154975238Y-63999580D01*
X106394819Y-84712380D02*
X105394819Y-84712380D01*
X105394819Y-84712380D02*
X105394819Y-84474285D01*
X105394819Y-84474285D02*
X105442438Y-84331428D01*
X105442438Y-84331428D02*
X105537676Y-84236190D01*
X105537676Y-84236190D02*
X105632914Y-84188571D01*
X105632914Y-84188571D02*
X105823390Y-84140952D01*
X105823390Y-84140952D02*
X105966247Y-84140952D01*
X105966247Y-84140952D02*
X106156723Y-84188571D01*
X106156723Y-84188571D02*
X106251961Y-84236190D01*
X106251961Y-84236190D02*
X106347200Y-84331428D01*
X106347200Y-84331428D02*
X106394819Y-84474285D01*
X106394819Y-84474285D02*
X106394819Y-84712380D01*
X106394819Y-83712380D02*
X105394819Y-83712380D01*
X106347200Y-83283809D02*
X106394819Y-83140952D01*
X106394819Y-83140952D02*
X106394819Y-82902857D01*
X106394819Y-82902857D02*
X106347200Y-82807619D01*
X106347200Y-82807619D02*
X106299580Y-82760000D01*
X106299580Y-82760000D02*
X106204342Y-82712381D01*
X106204342Y-82712381D02*
X106109104Y-82712381D01*
X106109104Y-82712381D02*
X106013866Y-82760000D01*
X106013866Y-82760000D02*
X105966247Y-82807619D01*
X105966247Y-82807619D02*
X105918628Y-82902857D01*
X105918628Y-82902857D02*
X105871009Y-83093333D01*
X105871009Y-83093333D02*
X105823390Y-83188571D01*
X105823390Y-83188571D02*
X105775771Y-83236190D01*
X105775771Y-83236190D02*
X105680533Y-83283809D01*
X105680533Y-83283809D02*
X105585295Y-83283809D01*
X105585295Y-83283809D02*
X105490057Y-83236190D01*
X105490057Y-83236190D02*
X105442438Y-83188571D01*
X105442438Y-83188571D02*
X105394819Y-83093333D01*
X105394819Y-83093333D02*
X105394819Y-82855238D01*
X105394819Y-82855238D02*
X105442438Y-82712381D01*
X106394819Y-81760000D02*
X106394819Y-82331428D01*
X106394819Y-82045714D02*
X105394819Y-82045714D01*
X105394819Y-82045714D02*
X105537676Y-82140952D01*
X105537676Y-82140952D02*
X105632914Y-82236190D01*
X105632914Y-82236190D02*
X105680533Y-82331428D01*
X111137142Y-107284819D02*
X110803809Y-106808628D01*
X110565714Y-107284819D02*
X110565714Y-106284819D01*
X110565714Y-106284819D02*
X110946666Y-106284819D01*
X110946666Y-106284819D02*
X111041904Y-106332438D01*
X111041904Y-106332438D02*
X111089523Y-106380057D01*
X111089523Y-106380057D02*
X111137142Y-106475295D01*
X111137142Y-106475295D02*
X111137142Y-106618152D01*
X111137142Y-106618152D02*
X111089523Y-106713390D01*
X111089523Y-106713390D02*
X111041904Y-106761009D01*
X111041904Y-106761009D02*
X110946666Y-106808628D01*
X110946666Y-106808628D02*
X110565714Y-106808628D01*
X112089523Y-107284819D02*
X111518095Y-107284819D01*
X111803809Y-107284819D02*
X111803809Y-106284819D01*
X111803809Y-106284819D02*
X111708571Y-106427676D01*
X111708571Y-106427676D02*
X111613333Y-106522914D01*
X111613333Y-106522914D02*
X111518095Y-106570533D01*
X113041904Y-107284819D02*
X112470476Y-107284819D01*
X112756190Y-107284819D02*
X112756190Y-106284819D01*
X112756190Y-106284819D02*
X112660952Y-106427676D01*
X112660952Y-106427676D02*
X112565714Y-106522914D01*
X112565714Y-106522914D02*
X112470476Y-106570533D01*
X117773333Y-102109580D02*
X117725714Y-102157200D01*
X117725714Y-102157200D02*
X117582857Y-102204819D01*
X117582857Y-102204819D02*
X117487619Y-102204819D01*
X117487619Y-102204819D02*
X117344762Y-102157200D01*
X117344762Y-102157200D02*
X117249524Y-102061961D01*
X117249524Y-102061961D02*
X117201905Y-101966723D01*
X117201905Y-101966723D02*
X117154286Y-101776247D01*
X117154286Y-101776247D02*
X117154286Y-101633390D01*
X117154286Y-101633390D02*
X117201905Y-101442914D01*
X117201905Y-101442914D02*
X117249524Y-101347676D01*
X117249524Y-101347676D02*
X117344762Y-101252438D01*
X117344762Y-101252438D02*
X117487619Y-101204819D01*
X117487619Y-101204819D02*
X117582857Y-101204819D01*
X117582857Y-101204819D02*
X117725714Y-101252438D01*
X117725714Y-101252438D02*
X117773333Y-101300057D01*
X118106667Y-101204819D02*
X118773333Y-101204819D01*
X118773333Y-101204819D02*
X118344762Y-102204819D01*
X125348095Y-106524819D02*
X125919523Y-106524819D01*
X125633809Y-107524819D02*
X125633809Y-106524819D01*
X126252857Y-107524819D02*
X126252857Y-106524819D01*
X126252857Y-106524819D02*
X126633809Y-106524819D01*
X126633809Y-106524819D02*
X126729047Y-106572438D01*
X126729047Y-106572438D02*
X126776666Y-106620057D01*
X126776666Y-106620057D02*
X126824285Y-106715295D01*
X126824285Y-106715295D02*
X126824285Y-106858152D01*
X126824285Y-106858152D02*
X126776666Y-106953390D01*
X126776666Y-106953390D02*
X126729047Y-107001009D01*
X126729047Y-107001009D02*
X126633809Y-107048628D01*
X126633809Y-107048628D02*
X126252857Y-107048628D01*
X127205238Y-106620057D02*
X127252857Y-106572438D01*
X127252857Y-106572438D02*
X127348095Y-106524819D01*
X127348095Y-106524819D02*
X127586190Y-106524819D01*
X127586190Y-106524819D02*
X127681428Y-106572438D01*
X127681428Y-106572438D02*
X127729047Y-106620057D01*
X127729047Y-106620057D02*
X127776666Y-106715295D01*
X127776666Y-106715295D02*
X127776666Y-106810533D01*
X127776666Y-106810533D02*
X127729047Y-106953390D01*
X127729047Y-106953390D02*
X127157619Y-107524819D01*
X127157619Y-107524819D02*
X127776666Y-107524819D01*
X96248095Y-89884819D02*
X96248095Y-90694342D01*
X96248095Y-90694342D02*
X96295714Y-90789580D01*
X96295714Y-90789580D02*
X96343333Y-90837200D01*
X96343333Y-90837200D02*
X96438571Y-90884819D01*
X96438571Y-90884819D02*
X96629047Y-90884819D01*
X96629047Y-90884819D02*
X96724285Y-90837200D01*
X96724285Y-90837200D02*
X96771904Y-90789580D01*
X96771904Y-90789580D02*
X96819523Y-90694342D01*
X96819523Y-90694342D02*
X96819523Y-89884819D01*
X97819523Y-90884819D02*
X97248095Y-90884819D01*
X97533809Y-90884819D02*
X97533809Y-89884819D01*
X97533809Y-89884819D02*
X97438571Y-90027676D01*
X97438571Y-90027676D02*
X97343333Y-90122914D01*
X97343333Y-90122914D02*
X97248095Y-90170533D01*
X101234761Y-93080057D02*
X101139523Y-93032438D01*
X101139523Y-93032438D02*
X101044285Y-92937200D01*
X101044285Y-92937200D02*
X100901428Y-92794342D01*
X100901428Y-92794342D02*
X100806190Y-92746723D01*
X100806190Y-92746723D02*
X100710952Y-92746723D01*
X100758571Y-92984819D02*
X100663333Y-92937200D01*
X100663333Y-92937200D02*
X100568095Y-92841961D01*
X100568095Y-92841961D02*
X100520476Y-92651485D01*
X100520476Y-92651485D02*
X100520476Y-92318152D01*
X100520476Y-92318152D02*
X100568095Y-92127676D01*
X100568095Y-92127676D02*
X100663333Y-92032438D01*
X100663333Y-92032438D02*
X100758571Y-91984819D01*
X100758571Y-91984819D02*
X100949047Y-91984819D01*
X100949047Y-91984819D02*
X101044285Y-92032438D01*
X101044285Y-92032438D02*
X101139523Y-92127676D01*
X101139523Y-92127676D02*
X101187142Y-92318152D01*
X101187142Y-92318152D02*
X101187142Y-92651485D01*
X101187142Y-92651485D02*
X101139523Y-92841961D01*
X101139523Y-92841961D02*
X101044285Y-92937200D01*
X101044285Y-92937200D02*
X100949047Y-92984819D01*
X100949047Y-92984819D02*
X100758571Y-92984819D01*
X102139523Y-92984819D02*
X101568095Y-92984819D01*
X101853809Y-92984819D02*
X101853809Y-91984819D01*
X101853809Y-91984819D02*
X101758571Y-92127676D01*
X101758571Y-92127676D02*
X101663333Y-92222914D01*
X101663333Y-92222914D02*
X101568095Y-92270533D01*
X88683333Y-81304819D02*
X88350000Y-80828628D01*
X88111905Y-81304819D02*
X88111905Y-80304819D01*
X88111905Y-80304819D02*
X88492857Y-80304819D01*
X88492857Y-80304819D02*
X88588095Y-80352438D01*
X88588095Y-80352438D02*
X88635714Y-80400057D01*
X88635714Y-80400057D02*
X88683333Y-80495295D01*
X88683333Y-80495295D02*
X88683333Y-80638152D01*
X88683333Y-80638152D02*
X88635714Y-80733390D01*
X88635714Y-80733390D02*
X88588095Y-80781009D01*
X88588095Y-80781009D02*
X88492857Y-80828628D01*
X88492857Y-80828628D02*
X88111905Y-80828628D01*
X89540476Y-80638152D02*
X89540476Y-81304819D01*
X89302381Y-80257200D02*
X89064286Y-80971485D01*
X89064286Y-80971485D02*
X89683333Y-80971485D01*
X87433333Y-104439580D02*
X87385714Y-104487200D01*
X87385714Y-104487200D02*
X87242857Y-104534819D01*
X87242857Y-104534819D02*
X87147619Y-104534819D01*
X87147619Y-104534819D02*
X87004762Y-104487200D01*
X87004762Y-104487200D02*
X86909524Y-104391961D01*
X86909524Y-104391961D02*
X86861905Y-104296723D01*
X86861905Y-104296723D02*
X86814286Y-104106247D01*
X86814286Y-104106247D02*
X86814286Y-103963390D01*
X86814286Y-103963390D02*
X86861905Y-103772914D01*
X86861905Y-103772914D02*
X86909524Y-103677676D01*
X86909524Y-103677676D02*
X87004762Y-103582438D01*
X87004762Y-103582438D02*
X87147619Y-103534819D01*
X87147619Y-103534819D02*
X87242857Y-103534819D01*
X87242857Y-103534819D02*
X87385714Y-103582438D01*
X87385714Y-103582438D02*
X87433333Y-103630057D01*
X87814286Y-103630057D02*
X87861905Y-103582438D01*
X87861905Y-103582438D02*
X87957143Y-103534819D01*
X87957143Y-103534819D02*
X88195238Y-103534819D01*
X88195238Y-103534819D02*
X88290476Y-103582438D01*
X88290476Y-103582438D02*
X88338095Y-103630057D01*
X88338095Y-103630057D02*
X88385714Y-103725295D01*
X88385714Y-103725295D02*
X88385714Y-103820533D01*
X88385714Y-103820533D02*
X88338095Y-103963390D01*
X88338095Y-103963390D02*
X87766667Y-104534819D01*
X87766667Y-104534819D02*
X88385714Y-104534819D01*
X140587142Y-98494819D02*
X140253809Y-98018628D01*
X140015714Y-98494819D02*
X140015714Y-97494819D01*
X140015714Y-97494819D02*
X140396666Y-97494819D01*
X140396666Y-97494819D02*
X140491904Y-97542438D01*
X140491904Y-97542438D02*
X140539523Y-97590057D01*
X140539523Y-97590057D02*
X140587142Y-97685295D01*
X140587142Y-97685295D02*
X140587142Y-97828152D01*
X140587142Y-97828152D02*
X140539523Y-97923390D01*
X140539523Y-97923390D02*
X140491904Y-97971009D01*
X140491904Y-97971009D02*
X140396666Y-98018628D01*
X140396666Y-98018628D02*
X140015714Y-98018628D01*
X141539523Y-98494819D02*
X140968095Y-98494819D01*
X141253809Y-98494819D02*
X141253809Y-97494819D01*
X141253809Y-97494819D02*
X141158571Y-97637676D01*
X141158571Y-97637676D02*
X141063333Y-97732914D01*
X141063333Y-97732914D02*
X140968095Y-97780533D01*
X142158571Y-97494819D02*
X142253809Y-97494819D01*
X142253809Y-97494819D02*
X142349047Y-97542438D01*
X142349047Y-97542438D02*
X142396666Y-97590057D01*
X142396666Y-97590057D02*
X142444285Y-97685295D01*
X142444285Y-97685295D02*
X142491904Y-97875771D01*
X142491904Y-97875771D02*
X142491904Y-98113866D01*
X142491904Y-98113866D02*
X142444285Y-98304342D01*
X142444285Y-98304342D02*
X142396666Y-98399580D01*
X142396666Y-98399580D02*
X142349047Y-98447200D01*
X142349047Y-98447200D02*
X142253809Y-98494819D01*
X142253809Y-98494819D02*
X142158571Y-98494819D01*
X142158571Y-98494819D02*
X142063333Y-98447200D01*
X142063333Y-98447200D02*
X142015714Y-98399580D01*
X142015714Y-98399580D02*
X141968095Y-98304342D01*
X141968095Y-98304342D02*
X141920476Y-98113866D01*
X141920476Y-98113866D02*
X141920476Y-97875771D01*
X141920476Y-97875771D02*
X141968095Y-97685295D01*
X141968095Y-97685295D02*
X142015714Y-97590057D01*
X142015714Y-97590057D02*
X142063333Y-97542438D01*
X142063333Y-97542438D02*
X142158571Y-97494819D01*
X129918095Y-106314819D02*
X130489523Y-106314819D01*
X130203809Y-107314819D02*
X130203809Y-106314819D01*
X130822857Y-107314819D02*
X130822857Y-106314819D01*
X130822857Y-106314819D02*
X131203809Y-106314819D01*
X131203809Y-106314819D02*
X131299047Y-106362438D01*
X131299047Y-106362438D02*
X131346666Y-106410057D01*
X131346666Y-106410057D02*
X131394285Y-106505295D01*
X131394285Y-106505295D02*
X131394285Y-106648152D01*
X131394285Y-106648152D02*
X131346666Y-106743390D01*
X131346666Y-106743390D02*
X131299047Y-106791009D01*
X131299047Y-106791009D02*
X131203809Y-106838628D01*
X131203809Y-106838628D02*
X130822857Y-106838628D01*
X131727619Y-106314819D02*
X132346666Y-106314819D01*
X132346666Y-106314819D02*
X132013333Y-106695771D01*
X132013333Y-106695771D02*
X132156190Y-106695771D01*
X132156190Y-106695771D02*
X132251428Y-106743390D01*
X132251428Y-106743390D02*
X132299047Y-106791009D01*
X132299047Y-106791009D02*
X132346666Y-106886247D01*
X132346666Y-106886247D02*
X132346666Y-107124342D01*
X132346666Y-107124342D02*
X132299047Y-107219580D01*
X132299047Y-107219580D02*
X132251428Y-107267200D01*
X132251428Y-107267200D02*
X132156190Y-107314819D01*
X132156190Y-107314819D02*
X131870476Y-107314819D01*
X131870476Y-107314819D02*
X131775238Y-107267200D01*
X131775238Y-107267200D02*
X131727619Y-107219580D01*
X97966905Y-73754819D02*
X97966905Y-72754819D01*
X97966905Y-72754819D02*
X98205000Y-72754819D01*
X98205000Y-72754819D02*
X98347857Y-72802438D01*
X98347857Y-72802438D02*
X98443095Y-72897676D01*
X98443095Y-72897676D02*
X98490714Y-72992914D01*
X98490714Y-72992914D02*
X98538333Y-73183390D01*
X98538333Y-73183390D02*
X98538333Y-73326247D01*
X98538333Y-73326247D02*
X98490714Y-73516723D01*
X98490714Y-73516723D02*
X98443095Y-73611961D01*
X98443095Y-73611961D02*
X98347857Y-73707200D01*
X98347857Y-73707200D02*
X98205000Y-73754819D01*
X98205000Y-73754819D02*
X97966905Y-73754819D01*
X98919286Y-72850057D02*
X98966905Y-72802438D01*
X98966905Y-72802438D02*
X99062143Y-72754819D01*
X99062143Y-72754819D02*
X99300238Y-72754819D01*
X99300238Y-72754819D02*
X99395476Y-72802438D01*
X99395476Y-72802438D02*
X99443095Y-72850057D01*
X99443095Y-72850057D02*
X99490714Y-72945295D01*
X99490714Y-72945295D02*
X99490714Y-73040533D01*
X99490714Y-73040533D02*
X99443095Y-73183390D01*
X99443095Y-73183390D02*
X98871667Y-73754819D01*
X98871667Y-73754819D02*
X99490714Y-73754819D01*
X92143333Y-65294819D02*
X91810000Y-64818628D01*
X91571905Y-65294819D02*
X91571905Y-64294819D01*
X91571905Y-64294819D02*
X91952857Y-64294819D01*
X91952857Y-64294819D02*
X92048095Y-64342438D01*
X92048095Y-64342438D02*
X92095714Y-64390057D01*
X92095714Y-64390057D02*
X92143333Y-64485295D01*
X92143333Y-64485295D02*
X92143333Y-64628152D01*
X92143333Y-64628152D02*
X92095714Y-64723390D01*
X92095714Y-64723390D02*
X92048095Y-64771009D01*
X92048095Y-64771009D02*
X91952857Y-64818628D01*
X91952857Y-64818628D02*
X91571905Y-64818628D01*
X92476667Y-64294819D02*
X93143333Y-64294819D01*
X93143333Y-64294819D02*
X92714762Y-65294819D01*
X141343333Y-107429580D02*
X141295714Y-107477200D01*
X141295714Y-107477200D02*
X141152857Y-107524819D01*
X141152857Y-107524819D02*
X141057619Y-107524819D01*
X141057619Y-107524819D02*
X140914762Y-107477200D01*
X140914762Y-107477200D02*
X140819524Y-107381961D01*
X140819524Y-107381961D02*
X140771905Y-107286723D01*
X140771905Y-107286723D02*
X140724286Y-107096247D01*
X140724286Y-107096247D02*
X140724286Y-106953390D01*
X140724286Y-106953390D02*
X140771905Y-106762914D01*
X140771905Y-106762914D02*
X140819524Y-106667676D01*
X140819524Y-106667676D02*
X140914762Y-106572438D01*
X140914762Y-106572438D02*
X141057619Y-106524819D01*
X141057619Y-106524819D02*
X141152857Y-106524819D01*
X141152857Y-106524819D02*
X141295714Y-106572438D01*
X141295714Y-106572438D02*
X141343333Y-106620057D01*
X141914762Y-106953390D02*
X141819524Y-106905771D01*
X141819524Y-106905771D02*
X141771905Y-106858152D01*
X141771905Y-106858152D02*
X141724286Y-106762914D01*
X141724286Y-106762914D02*
X141724286Y-106715295D01*
X141724286Y-106715295D02*
X141771905Y-106620057D01*
X141771905Y-106620057D02*
X141819524Y-106572438D01*
X141819524Y-106572438D02*
X141914762Y-106524819D01*
X141914762Y-106524819D02*
X142105238Y-106524819D01*
X142105238Y-106524819D02*
X142200476Y-106572438D01*
X142200476Y-106572438D02*
X142248095Y-106620057D01*
X142248095Y-106620057D02*
X142295714Y-106715295D01*
X142295714Y-106715295D02*
X142295714Y-106762914D01*
X142295714Y-106762914D02*
X142248095Y-106858152D01*
X142248095Y-106858152D02*
X142200476Y-106905771D01*
X142200476Y-106905771D02*
X142105238Y-106953390D01*
X142105238Y-106953390D02*
X141914762Y-106953390D01*
X141914762Y-106953390D02*
X141819524Y-107001009D01*
X141819524Y-107001009D02*
X141771905Y-107048628D01*
X141771905Y-107048628D02*
X141724286Y-107143866D01*
X141724286Y-107143866D02*
X141724286Y-107334342D01*
X141724286Y-107334342D02*
X141771905Y-107429580D01*
X141771905Y-107429580D02*
X141819524Y-107477200D01*
X141819524Y-107477200D02*
X141914762Y-107524819D01*
X141914762Y-107524819D02*
X142105238Y-107524819D01*
X142105238Y-107524819D02*
X142200476Y-107477200D01*
X142200476Y-107477200D02*
X142248095Y-107429580D01*
X142248095Y-107429580D02*
X142295714Y-107334342D01*
X142295714Y-107334342D02*
X142295714Y-107143866D01*
X142295714Y-107143866D02*
X142248095Y-107048628D01*
X142248095Y-107048628D02*
X142200476Y-107001009D01*
X142200476Y-107001009D02*
X142105238Y-106953390D01*
X97647142Y-69689580D02*
X97599523Y-69737200D01*
X97599523Y-69737200D02*
X97456666Y-69784819D01*
X97456666Y-69784819D02*
X97361428Y-69784819D01*
X97361428Y-69784819D02*
X97218571Y-69737200D01*
X97218571Y-69737200D02*
X97123333Y-69641961D01*
X97123333Y-69641961D02*
X97075714Y-69546723D01*
X97075714Y-69546723D02*
X97028095Y-69356247D01*
X97028095Y-69356247D02*
X97028095Y-69213390D01*
X97028095Y-69213390D02*
X97075714Y-69022914D01*
X97075714Y-69022914D02*
X97123333Y-68927676D01*
X97123333Y-68927676D02*
X97218571Y-68832438D01*
X97218571Y-68832438D02*
X97361428Y-68784819D01*
X97361428Y-68784819D02*
X97456666Y-68784819D01*
X97456666Y-68784819D02*
X97599523Y-68832438D01*
X97599523Y-68832438D02*
X97647142Y-68880057D01*
X98599523Y-69784819D02*
X98028095Y-69784819D01*
X98313809Y-69784819D02*
X98313809Y-68784819D01*
X98313809Y-68784819D02*
X98218571Y-68927676D01*
X98218571Y-68927676D02*
X98123333Y-69022914D01*
X98123333Y-69022914D02*
X98028095Y-69070533D01*
X99218571Y-68784819D02*
X99313809Y-68784819D01*
X99313809Y-68784819D02*
X99409047Y-68832438D01*
X99409047Y-68832438D02*
X99456666Y-68880057D01*
X99456666Y-68880057D02*
X99504285Y-68975295D01*
X99504285Y-68975295D02*
X99551904Y-69165771D01*
X99551904Y-69165771D02*
X99551904Y-69403866D01*
X99551904Y-69403866D02*
X99504285Y-69594342D01*
X99504285Y-69594342D02*
X99456666Y-69689580D01*
X99456666Y-69689580D02*
X99409047Y-69737200D01*
X99409047Y-69737200D02*
X99313809Y-69784819D01*
X99313809Y-69784819D02*
X99218571Y-69784819D01*
X99218571Y-69784819D02*
X99123333Y-69737200D01*
X99123333Y-69737200D02*
X99075714Y-69689580D01*
X99075714Y-69689580D02*
X99028095Y-69594342D01*
X99028095Y-69594342D02*
X98980476Y-69403866D01*
X98980476Y-69403866D02*
X98980476Y-69165771D01*
X98980476Y-69165771D02*
X99028095Y-68975295D01*
X99028095Y-68975295D02*
X99075714Y-68880057D01*
X99075714Y-68880057D02*
X99123333Y-68832438D01*
X99123333Y-68832438D02*
X99218571Y-68784819D01*
X76423333Y-76984819D02*
X76090000Y-76508628D01*
X75851905Y-76984819D02*
X75851905Y-75984819D01*
X75851905Y-75984819D02*
X76232857Y-75984819D01*
X76232857Y-75984819D02*
X76328095Y-76032438D01*
X76328095Y-76032438D02*
X76375714Y-76080057D01*
X76375714Y-76080057D02*
X76423333Y-76175295D01*
X76423333Y-76175295D02*
X76423333Y-76318152D01*
X76423333Y-76318152D02*
X76375714Y-76413390D01*
X76375714Y-76413390D02*
X76328095Y-76461009D01*
X76328095Y-76461009D02*
X76232857Y-76508628D01*
X76232857Y-76508628D02*
X75851905Y-76508628D01*
X76804286Y-76080057D02*
X76851905Y-76032438D01*
X76851905Y-76032438D02*
X76947143Y-75984819D01*
X76947143Y-75984819D02*
X77185238Y-75984819D01*
X77185238Y-75984819D02*
X77280476Y-76032438D01*
X77280476Y-76032438D02*
X77328095Y-76080057D01*
X77328095Y-76080057D02*
X77375714Y-76175295D01*
X77375714Y-76175295D02*
X77375714Y-76270533D01*
X77375714Y-76270533D02*
X77328095Y-76413390D01*
X77328095Y-76413390D02*
X76756667Y-76984819D01*
X76756667Y-76984819D02*
X77375714Y-76984819D01*
X101572142Y-101219819D02*
X101238809Y-100743628D01*
X101000714Y-101219819D02*
X101000714Y-100219819D01*
X101000714Y-100219819D02*
X101381666Y-100219819D01*
X101381666Y-100219819D02*
X101476904Y-100267438D01*
X101476904Y-100267438D02*
X101524523Y-100315057D01*
X101524523Y-100315057D02*
X101572142Y-100410295D01*
X101572142Y-100410295D02*
X101572142Y-100553152D01*
X101572142Y-100553152D02*
X101524523Y-100648390D01*
X101524523Y-100648390D02*
X101476904Y-100696009D01*
X101476904Y-100696009D02*
X101381666Y-100743628D01*
X101381666Y-100743628D02*
X101000714Y-100743628D01*
X102524523Y-101219819D02*
X101953095Y-101219819D01*
X102238809Y-101219819D02*
X102238809Y-100219819D01*
X102238809Y-100219819D02*
X102143571Y-100362676D01*
X102143571Y-100362676D02*
X102048333Y-100457914D01*
X102048333Y-100457914D02*
X101953095Y-100505533D01*
X102905476Y-100315057D02*
X102953095Y-100267438D01*
X102953095Y-100267438D02*
X103048333Y-100219819D01*
X103048333Y-100219819D02*
X103286428Y-100219819D01*
X103286428Y-100219819D02*
X103381666Y-100267438D01*
X103381666Y-100267438D02*
X103429285Y-100315057D01*
X103429285Y-100315057D02*
X103476904Y-100410295D01*
X103476904Y-100410295D02*
X103476904Y-100505533D01*
X103476904Y-100505533D02*
X103429285Y-100648390D01*
X103429285Y-100648390D02*
X102857857Y-101219819D01*
X102857857Y-101219819D02*
X103476904Y-101219819D01*
X136393095Y-55104819D02*
X136393095Y-55914342D01*
X136393095Y-55914342D02*
X136440714Y-56009580D01*
X136440714Y-56009580D02*
X136488333Y-56057200D01*
X136488333Y-56057200D02*
X136583571Y-56104819D01*
X136583571Y-56104819D02*
X136774047Y-56104819D01*
X136774047Y-56104819D02*
X136869285Y-56057200D01*
X136869285Y-56057200D02*
X136916904Y-56009580D01*
X136916904Y-56009580D02*
X136964523Y-55914342D01*
X136964523Y-55914342D02*
X136964523Y-55104819D01*
X137345476Y-55104819D02*
X137964523Y-55104819D01*
X137964523Y-55104819D02*
X137631190Y-55485771D01*
X137631190Y-55485771D02*
X137774047Y-55485771D01*
X137774047Y-55485771D02*
X137869285Y-55533390D01*
X137869285Y-55533390D02*
X137916904Y-55581009D01*
X137916904Y-55581009D02*
X137964523Y-55676247D01*
X137964523Y-55676247D02*
X137964523Y-55914342D01*
X137964523Y-55914342D02*
X137916904Y-56009580D01*
X137916904Y-56009580D02*
X137869285Y-56057200D01*
X137869285Y-56057200D02*
X137774047Y-56104819D01*
X137774047Y-56104819D02*
X137488333Y-56104819D01*
X137488333Y-56104819D02*
X137393095Y-56057200D01*
X137393095Y-56057200D02*
X137345476Y-56009580D01*
X97779642Y-65014819D02*
X97446309Y-64538628D01*
X97208214Y-65014819D02*
X97208214Y-64014819D01*
X97208214Y-64014819D02*
X97589166Y-64014819D01*
X97589166Y-64014819D02*
X97684404Y-64062438D01*
X97684404Y-64062438D02*
X97732023Y-64110057D01*
X97732023Y-64110057D02*
X97779642Y-64205295D01*
X97779642Y-64205295D02*
X97779642Y-64348152D01*
X97779642Y-64348152D02*
X97732023Y-64443390D01*
X97732023Y-64443390D02*
X97684404Y-64491009D01*
X97684404Y-64491009D02*
X97589166Y-64538628D01*
X97589166Y-64538628D02*
X97208214Y-64538628D01*
X98732023Y-65014819D02*
X98160595Y-65014819D01*
X98446309Y-65014819D02*
X98446309Y-64014819D01*
X98446309Y-64014819D02*
X98351071Y-64157676D01*
X98351071Y-64157676D02*
X98255833Y-64252914D01*
X98255833Y-64252914D02*
X98160595Y-64300533D01*
X99065357Y-64014819D02*
X99684404Y-64014819D01*
X99684404Y-64014819D02*
X99351071Y-64395771D01*
X99351071Y-64395771D02*
X99493928Y-64395771D01*
X99493928Y-64395771D02*
X99589166Y-64443390D01*
X99589166Y-64443390D02*
X99636785Y-64491009D01*
X99636785Y-64491009D02*
X99684404Y-64586247D01*
X99684404Y-64586247D02*
X99684404Y-64824342D01*
X99684404Y-64824342D02*
X99636785Y-64919580D01*
X99636785Y-64919580D02*
X99589166Y-64967200D01*
X99589166Y-64967200D02*
X99493928Y-65014819D01*
X99493928Y-65014819D02*
X99208214Y-65014819D01*
X99208214Y-65014819D02*
X99112976Y-64967200D01*
X99112976Y-64967200D02*
X99065357Y-64919580D01*
X150316666Y-113534819D02*
X150316666Y-114249104D01*
X150316666Y-114249104D02*
X150269047Y-114391961D01*
X150269047Y-114391961D02*
X150173809Y-114487200D01*
X150173809Y-114487200D02*
X150030952Y-114534819D01*
X150030952Y-114534819D02*
X149935714Y-114534819D01*
X151221428Y-113868152D02*
X151221428Y-114534819D01*
X150983333Y-113487200D02*
X150745238Y-114201485D01*
X150745238Y-114201485D02*
X151364285Y-114201485D01*
D11*
%TO.C,R9*%
X112479564Y-100660000D02*
X111025436Y-100660000D01*
X112479564Y-98840000D02*
X111025436Y-98840000D01*
%TO.C,C4*%
X125591252Y-60170000D02*
X124168748Y-60170000D01*
X125591252Y-58350000D02*
X124168748Y-58350000D01*
%TO.C,Q2*%
X91800000Y-97790000D02*
X95400000Y-97790000D01*
X93600000Y-93340001D02*
G75*
G03*
X91243601Y-94841193I0J-2599999D01*
G01*
X91275817Y-97062795D02*
G75*
G03*
X91800001Y-97789999I2324183J1122795D01*
G01*
X95956400Y-94841193D02*
G75*
G03*
X93600000Y-93340000I-2356400J-1098807D01*
G01*
X95399999Y-97789999D02*
G75*
G03*
X95924183Y-97062795I-1799999J1849999D01*
G01*
%TO.C,TP6*%
X115390000Y-103670000D02*
X115390000Y-105370000D01*
X115390000Y-105370000D02*
X115390000Y-105870000D01*
X115390000Y-105870000D02*
X117990000Y-105870000D01*
X117990000Y-103670000D02*
X115390000Y-103670000D01*
X117990000Y-105870000D02*
X117990000Y-103670000D01*
%TO.C,C9*%
X129520000Y-98380000D02*
X129520000Y-101120000D01*
X129520000Y-98380000D02*
X136760000Y-98380000D01*
X129520000Y-101120000D02*
X136760000Y-101120000D01*
X136760000Y-98380000D02*
X136760000Y-101120000D01*
%TO.C,C6*%
X104421252Y-76380000D02*
X102998748Y-76380000D01*
X104421252Y-74560000D02*
X102998748Y-74560000D01*
%TO.C,TP1*%
X122860000Y-105920000D02*
X122860000Y-103720000D01*
X122860000Y-103720000D02*
X120260000Y-103720000D01*
X120260000Y-105920000D02*
X122860000Y-105920000D01*
X120260000Y-105420000D02*
X120260000Y-105920000D01*
X120260000Y-103720000D02*
X120260000Y-105420000D01*
%TO.C,C3*%
X74422500Y-101852500D02*
X75210000Y-101852500D01*
X74816250Y-101458750D02*
X74816250Y-102246250D01*
X75450000Y-101354437D02*
X75450000Y-102640000D01*
X75450000Y-101354437D02*
X76514437Y-100290000D01*
X75450000Y-106045563D02*
X75450000Y-104760000D01*
X75450000Y-106045563D02*
X76514437Y-107110000D01*
X76514437Y-100290000D02*
X82270000Y-100290000D01*
X76514437Y-107110000D02*
X82270000Y-107110000D01*
X82270000Y-100290000D02*
X82270000Y-102640000D01*
X82270000Y-107110000D02*
X82270000Y-104760000D01*
%TO.C,R1*%
X80530000Y-87770000D02*
X80530000Y-87000000D01*
X79160000Y-87000000D02*
X81900000Y-87000000D01*
X81900000Y-87000000D02*
X81900000Y-80460000D01*
X79160000Y-80460000D02*
X79160000Y-87000000D01*
X81900000Y-80460000D02*
X79160000Y-80460000D01*
X80530000Y-79690000D02*
X80530000Y-80460000D01*
%TO.C,C5*%
X125821252Y-100600000D02*
X124398748Y-100600000D01*
X125821252Y-98780000D02*
X124398748Y-98780000D01*
%TO.C,TP4*%
X150530000Y-66740000D02*
X150530000Y-65040000D01*
X150530000Y-65040000D02*
X150530000Y-64540000D01*
X150530000Y-64540000D02*
X147930000Y-64540000D01*
X147930000Y-66740000D02*
X150530000Y-66740000D01*
X147930000Y-64540000D02*
X147930000Y-66740000D01*
%TO.C,J2*%
X121450000Y-53810000D02*
X121450000Y-53070000D01*
X121450000Y-53070000D02*
X120950000Y-53070000D01*
X121210000Y-63231000D02*
X121210000Y-53310000D01*
X121210000Y-63231000D02*
X110930000Y-63231000D01*
X121210000Y-60271000D02*
X110930000Y-60271000D01*
X121210000Y-55370000D02*
X110930000Y-55370000D01*
X121210000Y-53870000D02*
X110930000Y-53870000D01*
X121210000Y-53310000D02*
X110930000Y-53310000D01*
X114757000Y-56947000D02*
X114804000Y-56901000D01*
X114564000Y-56731000D02*
X114599000Y-56696000D01*
X112460000Y-59245000D02*
X112495000Y-59209000D01*
X112255000Y-59039000D02*
X112302000Y-58993000D01*
X110930000Y-63231000D02*
X110930000Y-53310000D01*
X120144999Y-58653999D02*
G75*
G03*
X120145426Y-57286958I-1534992J684000D01*
G01*
X117926001Y-59504999D02*
G75*
G03*
X119293042Y-59505426I684000J1534992D01*
G01*
X119294000Y-56435001D02*
G75*
G03*
X118581195Y-56289748I-683999J-1535000D01*
G01*
X118610000Y-56290001D02*
G75*
G03*
X117926682Y-56435245I0J-1679999D01*
G01*
X117075000Y-57286000D02*
G75*
G03*
X117074574Y-58653042I1535000J-684000D01*
G01*
X115210000Y-57970000D02*
G75*
G03*
X111850000Y-57970000I-1680000J0D01*
G01*
X111850000Y-57970000D02*
G75*
G03*
X115210000Y-57970000I1680000J0D01*
G01*
%TO.C,J3*%
X109740000Y-53790000D02*
X109740000Y-53050000D01*
X109740000Y-53050000D02*
X109240000Y-53050000D01*
X109500000Y-63211000D02*
X109500000Y-53290000D01*
X109500000Y-63211000D02*
X99220000Y-63211000D01*
X109500000Y-60251000D02*
X99220000Y-60251000D01*
X109500000Y-55350000D02*
X99220000Y-55350000D01*
X109500000Y-53850000D02*
X99220000Y-53850000D01*
X109500000Y-53290000D02*
X99220000Y-53290000D01*
X103047000Y-56927000D02*
X103094000Y-56881000D01*
X102854000Y-56711000D02*
X102889000Y-56676000D01*
X100750000Y-59225000D02*
X100785000Y-59189000D01*
X100545000Y-59019000D02*
X100592000Y-58973000D01*
X99220000Y-63211000D02*
X99220000Y-53290000D01*
X108434999Y-58633999D02*
G75*
G03*
X108435426Y-57266958I-1534992J684000D01*
G01*
X106216001Y-59484999D02*
G75*
G03*
X107583042Y-59485426I684000J1534992D01*
G01*
X107584000Y-56415001D02*
G75*
G03*
X106871195Y-56269748I-683999J-1535000D01*
G01*
X106900000Y-56270001D02*
G75*
G03*
X106216682Y-56415245I0J-1679999D01*
G01*
X105365000Y-57266000D02*
G75*
G03*
X105364574Y-58633042I1535000J-684000D01*
G01*
X103500000Y-57950000D02*
G75*
G03*
X100140000Y-57950000I-1680000J0D01*
G01*
X100140000Y-57950000D02*
G75*
G03*
X103500000Y-57950000I1680000J0D01*
G01*
%TO.C,R3*%
X72530000Y-87770000D02*
X72530000Y-87000000D01*
X71160000Y-87000000D02*
X73900000Y-87000000D01*
X73900000Y-87000000D02*
X73900000Y-80460000D01*
X71160000Y-80460000D02*
X71160000Y-87000000D01*
X73900000Y-80460000D02*
X71160000Y-80460000D01*
X72530000Y-79690000D02*
X72530000Y-80460000D01*
%TO.C,J1*%
X73040000Y-117845000D02*
X73040000Y-118585000D01*
X73040000Y-118585000D02*
X73540000Y-118585000D01*
X73280000Y-108424000D02*
X73280000Y-118345000D01*
X73280000Y-108424000D02*
X114040000Y-108424000D01*
X73280000Y-111384000D02*
X114040000Y-111384000D01*
X73280000Y-116285000D02*
X114040000Y-116285000D01*
X73280000Y-117785000D02*
X114040000Y-117785000D01*
X73280000Y-118345000D02*
X114040000Y-118345000D01*
X79733000Y-114708000D02*
X79686000Y-114754000D01*
X79926000Y-114924000D02*
X79891000Y-114959000D01*
X82030000Y-112410000D02*
X81995000Y-112446000D01*
X82235000Y-112616000D02*
X82188000Y-112662000D01*
X84813000Y-114708000D02*
X84766000Y-114754000D01*
X85006000Y-114924000D02*
X84971000Y-114959000D01*
X87110000Y-112410000D02*
X87075000Y-112446000D01*
X87315000Y-112616000D02*
X87268000Y-112662000D01*
X89893000Y-114708000D02*
X89846000Y-114754000D01*
X90086000Y-114924000D02*
X90051000Y-114959000D01*
X92190000Y-112410000D02*
X92155000Y-112446000D01*
X92395000Y-112616000D02*
X92348000Y-112662000D01*
X94973000Y-114708000D02*
X94926000Y-114754000D01*
X95166000Y-114924000D02*
X95131000Y-114959000D01*
X97270000Y-112410000D02*
X97235000Y-112446000D01*
X97475000Y-112616000D02*
X97428000Y-112662000D01*
X100053000Y-114708000D02*
X100006000Y-114754000D01*
X100246000Y-114924000D02*
X100211000Y-114959000D01*
X102350000Y-112410000D02*
X102315000Y-112446000D01*
X102555000Y-112616000D02*
X102508000Y-112662000D01*
X105133000Y-114708000D02*
X105086000Y-114754000D01*
X105326000Y-114924000D02*
X105291000Y-114959000D01*
X107430000Y-112410000D02*
X107395000Y-112446000D01*
X107635000Y-112616000D02*
X107588000Y-112662000D01*
X110213000Y-114708000D02*
X110166000Y-114754000D01*
X110406000Y-114924000D02*
X110371000Y-114959000D01*
X112510000Y-112410000D02*
X112475000Y-112446000D01*
X112715000Y-112616000D02*
X112668000Y-112662000D01*
X114040000Y-108424000D02*
X114040000Y-118345000D01*
X74345001Y-113001001D02*
G75*
G03*
X74344574Y-114368042I1534992J-684000D01*
G01*
X76563999Y-112150001D02*
G75*
G03*
X75196958Y-112149574I-684000J-1534992D01*
G01*
X75196000Y-115219999D02*
G75*
G03*
X75908805Y-115365252I683999J1535000D01*
G01*
X75880000Y-115364999D02*
G75*
G03*
X76563318Y-115219755I0J1679999D01*
G01*
X77415000Y-114369000D02*
G75*
G03*
X77415426Y-113001958I-1535000J684000D01*
G01*
X82640000Y-113685000D02*
G75*
G03*
X79280000Y-113685000I-1680000J0D01*
G01*
X79280000Y-113685000D02*
G75*
G03*
X82640000Y-113685000I1680000J0D01*
G01*
X87720000Y-113685000D02*
G75*
G03*
X84360000Y-113685000I-1680000J0D01*
G01*
X84360000Y-113685000D02*
G75*
G03*
X87720000Y-113685000I1680000J0D01*
G01*
X92800000Y-113685000D02*
G75*
G03*
X89440000Y-113685000I-1680000J0D01*
G01*
X89440000Y-113685000D02*
G75*
G03*
X92800000Y-113685000I1680000J0D01*
G01*
X97880000Y-113685000D02*
G75*
G03*
X94520000Y-113685000I-1680000J0D01*
G01*
X94520000Y-113685000D02*
G75*
G03*
X97880000Y-113685000I1680000J0D01*
G01*
X102960000Y-113685000D02*
G75*
G03*
X99600000Y-113685000I-1680000J0D01*
G01*
X99600000Y-113685000D02*
G75*
G03*
X102960000Y-113685000I1680000J0D01*
G01*
X108040000Y-113685000D02*
G75*
G03*
X104680000Y-113685000I-1680000J0D01*
G01*
X104680000Y-113685000D02*
G75*
G03*
X108040000Y-113685000I1680000J0D01*
G01*
X113120000Y-113685000D02*
G75*
G03*
X109760000Y-113685000I-1680000J0D01*
G01*
X109760000Y-113685000D02*
G75*
G03*
X113120000Y-113685000I1680000J0D01*
G01*
%TO.C,R8*%
X124152936Y-63680000D02*
X125607064Y-63680000D01*
X124152936Y-65500000D02*
X125607064Y-65500000D01*
%TO.C,C1*%
X91588748Y-72160000D02*
X93011252Y-72160000D01*
X91588748Y-70340000D02*
X93011252Y-70340000D01*
%TO.C,R6*%
X91602936Y-77000000D02*
X93057064Y-77000000D01*
X91602936Y-75180000D02*
X93057064Y-75180000D01*
%TO.C,R5*%
X86912936Y-101300000D02*
X88367064Y-101300000D01*
X86912936Y-103120000D02*
X88367064Y-103120000D01*
%TO.C,U5*%
X69190000Y-85420000D02*
X69190000Y-81820000D01*
X64740000Y-83620000D02*
G75*
G03*
X69178478Y-85458478I2600000J0D01*
G01*
X69178478Y-81781522D02*
G75*
G03*
X64740000Y-83620000I-1838478J-1838478D01*
G01*
%TO.C,D1*%
X96640000Y-105286000D02*
X96640000Y-105130000D01*
X96640000Y-102970000D02*
X96640000Y-102814000D01*
X93407666Y-105128608D02*
G75*
G03*
X96639999Y-105285515I1672334J1078608D01*
G01*
X94038871Y-105129836D02*
G75*
G03*
X96120960Y-105129999I1041129J1079836D01*
G01*
X96120960Y-102970001D02*
G75*
G03*
X94038871Y-102970164I-1040960J-1079999D01*
G01*
X96639999Y-102814485D02*
G75*
G03*
X93407666Y-102971392I-1559999J-1235515D01*
G01*
%TO.C,TP5*%
X155690000Y-66850000D02*
X155690000Y-65150000D01*
X155690000Y-65150000D02*
X155690000Y-64650000D01*
X155690000Y-64650000D02*
X153090000Y-64650000D01*
X153090000Y-66850000D02*
X155690000Y-66850000D01*
X153090000Y-64650000D02*
X153090000Y-66850000D01*
%TO.C,DIS1*%
X158020000Y-69200000D02*
X154720000Y-69200000D01*
X158020000Y-69200000D02*
X158020000Y-71300000D01*
X158110000Y-71650000D02*
X107070000Y-71650000D01*
X107070000Y-71650000D02*
X107070000Y-94750000D01*
X158110000Y-94750000D02*
X158110000Y-71650000D01*
X107070000Y-94750000D02*
X158110000Y-94750000D01*
%TO.C,R11*%
X111092936Y-103840000D02*
X112547064Y-103840000D01*
X111092936Y-105660000D02*
X112547064Y-105660000D01*
%TO.C,C7*%
X118771252Y-100600000D02*
X117348748Y-100600000D01*
X118771252Y-98780000D02*
X117348748Y-98780000D01*
%TO.C,TP2*%
X125260000Y-103730000D02*
X125260000Y-105430000D01*
X125260000Y-105430000D02*
X125260000Y-105930000D01*
X125260000Y-105930000D02*
X127860000Y-105930000D01*
X127860000Y-103730000D02*
X125260000Y-103730000D01*
X127860000Y-105930000D02*
X127860000Y-103730000D01*
%TO.C,U1*%
X102150000Y-89490000D02*
X102150000Y-79090000D01*
X102150000Y-79090000D02*
X91870000Y-79090000D01*
X99660000Y-89430000D02*
X99660000Y-79150000D01*
X99660000Y-79150000D02*
X94360000Y-79150000D01*
X98010000Y-89430000D02*
X99660000Y-89430000D01*
X94360000Y-89430000D02*
X96010000Y-89430000D01*
X94360000Y-79150000D02*
X94360000Y-89430000D01*
X91870000Y-89490000D02*
X102150000Y-89490000D01*
X91870000Y-79090000D02*
X91870000Y-89490000D01*
X98010000Y-89430000D02*
G75*
G03*
X96010000Y-89430000I-1000000J0D01*
G01*
%TO.C,Q1*%
X99390000Y-97790000D02*
X103240000Y-97790000D01*
X101330000Y-93490001D02*
G75*
G03*
X98973601Y-94991193I0J-2599999D01*
G01*
X99007369Y-97212045D02*
G75*
G03*
X99390000Y-97790000I2322631J1122045D01*
G01*
X103686400Y-94991193D02*
G75*
G03*
X101330000Y-93490000I-2356400J-1098807D01*
G01*
X103239999Y-97789999D02*
G75*
G03*
X103632382Y-97202264I-1909999J1699999D01*
G01*
%TO.C,R4*%
X87980000Y-83432936D02*
X87980000Y-84887064D01*
X89800000Y-83432936D02*
X89800000Y-84887064D01*
%TO.C,C2*%
X88401252Y-106720000D02*
X86978748Y-106720000D01*
X88401252Y-104900000D02*
X86978748Y-104900000D01*
%TO.C,R10*%
X140702936Y-98980000D02*
X142157064Y-98980000D01*
X140702936Y-100800000D02*
X142157064Y-100800000D01*
%TO.C,TP3*%
X129910000Y-103700000D02*
X129910000Y-105400000D01*
X129910000Y-105400000D02*
X129910000Y-105900000D01*
X129910000Y-105900000D02*
X132510000Y-105900000D01*
X132510000Y-103700000D02*
X129910000Y-103700000D01*
X132510000Y-105900000D02*
X132510000Y-103700000D01*
%TO.C,D2*%
X100179999Y-74934485D02*
G75*
G03*
X96947666Y-75091392I-1559999J-1235515D01*
G01*
X99660960Y-75090001D02*
G75*
G03*
X97578871Y-75090164I-1040960J-1079999D01*
G01*
X97578871Y-77249836D02*
G75*
G03*
X99660960Y-77249999I1041129J1079836D01*
G01*
X96947666Y-77248608D02*
G75*
G03*
X100179999Y-77405515I1672334J1078608D01*
G01*
X100180000Y-75090000D02*
X100180000Y-74934000D01*
X100180000Y-77406000D02*
X100180000Y-77250000D01*
%TO.C,R7*%
X91582936Y-67380000D02*
X93037064Y-67380000D01*
X91582936Y-65560000D02*
X93037064Y-65560000D01*
%TO.C,C8*%
X142221252Y-106060000D02*
X140798748Y-106060000D01*
X142221252Y-104240000D02*
X140798748Y-104240000D01*
%TO.C,C10*%
X99151252Y-70300000D02*
X97728748Y-70300000D01*
X99151252Y-72120000D02*
X97728748Y-72120000D01*
%TO.C,R2*%
X76480000Y-87770000D02*
X76480000Y-87000000D01*
X75110000Y-87000000D02*
X77850000Y-87000000D01*
X77850000Y-87000000D02*
X77850000Y-80460000D01*
X75110000Y-80460000D02*
X75110000Y-87000000D01*
X77850000Y-80460000D02*
X75110000Y-80460000D01*
X76480000Y-79690000D02*
X76480000Y-80460000D01*
%TO.C,R12*%
X99435000Y-101730000D02*
X99435000Y-103516000D01*
X99435000Y-101730000D02*
X106385000Y-101730000D01*
X99435000Y-104506000D02*
X99435000Y-106470000D01*
X99435000Y-106470000D02*
X106385000Y-106470000D01*
X106385000Y-101730000D02*
X106385000Y-103516000D01*
X106385000Y-104506000D02*
X106385000Y-106470000D01*
%TO.C,U3*%
X128305000Y-67060000D02*
X146325000Y-67060000D01*
X146325000Y-67060000D02*
X146325000Y-56780000D01*
X128365000Y-64570000D02*
X146265000Y-64570000D01*
X146265000Y-64570000D02*
X146265000Y-59270000D01*
X128365000Y-62920000D02*
X128365000Y-64570000D01*
X128365000Y-59270000D02*
X128365000Y-60920000D01*
X146265000Y-59270000D02*
X128365000Y-59270000D01*
X128305000Y-56780000D02*
X128305000Y-67060000D01*
X146325000Y-56780000D02*
X128305000Y-56780000D01*
X128365000Y-62920000D02*
G75*
G03*
X128365000Y-60920000I0J1000000D01*
G01*
%TO.C,R13*%
X97672936Y-67300000D02*
X99127064Y-67300000D01*
X97672936Y-65480000D02*
X99127064Y-65480000D01*
%TO.C,J4*%
X144510000Y-107840000D02*
X143510000Y-107840000D01*
X143510000Y-107840000D02*
X144010000Y-108840000D01*
X144010000Y-108840000D02*
X144510000Y-107840000D01*
X149220000Y-109230000D02*
X149220000Y-118350000D01*
X134630000Y-109230000D02*
X134630000Y-110540000D01*
X115940000Y-109230000D02*
X149220000Y-109230000D01*
X147920000Y-110540000D02*
X147920000Y-117040000D01*
X134630000Y-110540000D02*
X147920000Y-110540000D01*
X130530000Y-110540000D02*
X130530000Y-109230000D01*
X130530000Y-110540000D02*
X130530000Y-110540000D01*
X117240000Y-110540000D02*
X130530000Y-110540000D01*
X147920000Y-117040000D02*
X117240000Y-117040000D01*
X117240000Y-117040000D02*
X117240000Y-110540000D01*
X149220000Y-118350000D02*
X115940000Y-118350000D01*
X115940000Y-118350000D02*
X115940000Y-109230000D01*
%TD*%
M02*
